<svg xmlns="http://www.w3.org/2000/svg" xmlns:xlink="http://www.w3.org/1999/xlink" width="700pt" height="700pt" version="1.1" viewBox="0 0 700 700">
 <defs fill="#0288d1">
  <symbol id="v" overflow="visible" fill="#0288d1">
   <path d="m18.766-1.125c-0.96875 0.5-1.9805 0.875-3.0312 1.125-1.043 0.25781-2.1367 0.39062-3.2812 0.39062-3.3984 0-6.0898-0.94531-8.0781-2.8438-1.9922-1.9062-2.9844-4.4844-2.9844-7.7344 0-3.2578 0.99219-5.8359 2.9844-7.7344 1.9883-1.9062 4.6797-2.8594 8.0781-2.8594 1.1445 0 2.2383 0.13281 3.2812 0.39062 1.0508 0.25 2.0625 0.625 3.0312 1.125v4.2188c-0.98047-0.65625-1.9453-1.1406-2.8906-1.4531-0.94922-0.3125-1.9492-0.46875-3-0.46875-1.875 0-3.3516 0.60547-4.4219 1.8125-1.0742 1.1992-1.6094 2.8555-1.6094 4.9688 0 2.1055 0.53516 3.7617 1.6094 4.9688 1.0703 1.1992 2.5469 1.7969 4.4219 1.7969 1.0508 0 2.0508-0.14844 3-0.45312 0.94531-0.3125 1.9102-0.80078 2.8906-1.4688z" fill="#0288d1"/>
  </symbol>
  <symbol id="b" overflow="visible" fill="#0288d1">
   <path d="m13.734-11.141c-0.4375-0.19531-0.87109-0.34375-1.2969-0.4375-0.41797-0.10156-0.83984-0.15625-1.2656-0.15625-1.2617 0-2.2305 0.40625-2.9062 1.2188-0.67969 0.80469-1.0156 1.9531-1.0156 3.4531v7.0625h-4.8906v-15.312h4.8906v2.5156c0.625-1 1.3438-1.7266 2.1562-2.1875 0.82031-0.46875 1.8008-0.70312 2.9375-0.70312 0.16406 0 0.34375 0.011719 0.53125 0.03125 0.19531 0.011719 0.47656 0.039062 0.84375 0.078125z" fill="#0288d1"/>
  </symbol>
  <symbol id="a" overflow="visible" fill="#0288d1">
   <path d="m17.641-7.7031v1.4062h-11.453c0.125 1.1484 0.53906 2.0078 1.25 2.5781 0.70703 0.57422 1.7031 0.85938 2.9844 0.85938 1.0312 0 2.082-0.14844 3.1562-0.45312 1.082-0.3125 2.1914-0.77344 3.3281-1.3906v3.7656c-1.1562 0.4375-2.3125 0.76562-3.4688 0.98438-1.1562 0.22656-2.3125 0.34375-3.4688 0.34375-2.7734 0-4.9297-0.70312-6.4688-2.1094-1.5312-1.4062-2.2969-3.3789-2.2969-5.9219 0-2.5 0.75391-4.4609 2.2656-5.8906 1.5078-1.4375 3.582-2.1562 6.2188-2.1562 2.4062 0 4.332 0.73047 5.7812 2.1875 1.4453 1.4492 2.1719 3.3828 2.1719 5.7969zm-5.0312-1.625c0-0.92578-0.27344-1.6719-0.8125-2.2344-0.54297-0.57031-1.25-0.85938-2.125-0.85938-0.94922 0-1.7188 0.26562-2.3125 0.79688s-0.96484 1.2969-1.1094 2.2969z" fill="#0288d1"/>
  </symbol>
  <symbol id="j" overflow="visible" fill="#0288d1">
   <path d="m9.2188-6.8906c-1.0234 0-1.793 0.17188-2.3125 0.51562-0.51172 0.34375-0.76562 0.85547-0.76562 1.5312 0 0.625 0.20703 1.1172 0.625 1.4688 0.41406 0.34375 0.98828 0.51562 1.7188 0.51562 0.92578 0 1.7031-0.32812 2.3281-0.98438 0.63281-0.66406 0.95312-1.4922 0.95312-2.4844v-0.5625zm7.4688-1.8438v8.7344h-4.9219v-2.2656c-0.65625 0.92969-1.3984 1.6055-2.2188 2.0312-0.82422 0.41406-1.8242 0.625-3 0.625-1.5859 0-2.8711-0.45703-3.8594-1.375-0.99219-0.92578-1.4844-2.1289-1.4844-3.6094 0-1.7891 0.61328-3.1016 1.8438-3.9375 1.2383-0.84375 3.1797-1.2656 5.8281-1.2656h2.8906v-0.39062c0-0.76953-0.30859-1.332-0.92188-1.6875-0.61719-0.36328-1.5703-0.54688-2.8594-0.54688-1.0547 0-2.0312 0.10547-2.9375 0.3125-0.89844 0.21094-1.7305 0.52344-2.5 0.9375v-3.7344c1.0391-0.25 2.0859-0.44141 3.1406-0.57812 1.0625-0.13281 2.125-0.20312 3.1875-0.20312 2.7578 0 4.75 0.54688 5.9688 1.6406 1.2266 1.0859 1.8438 2.8555 1.8438 5.3125z" fill="#0288d1"/>
  </symbol>
  <symbol id="c" overflow="visible" fill="#0288d1">
   <path d="m7.7031-19.656v4.3438h5.0469v3.5h-5.0469v6.5c0 0.71094 0.14062 1.1875 0.42188 1.4375s0.83594 0.375 1.6719 0.375h2.5156v3.5h-4.1875c-1.9375 0-3.3125-0.39844-4.125-1.2031-0.80469-0.8125-1.2031-2.1797-1.2031-4.1094v-6.5h-2.4219v-3.5h2.4219v-4.3438z" fill="#0288d1"/>
  </symbol>
  <symbol id="i" overflow="visible" fill="#0288d1">
   <path d="m12.766-13.078v-8.2031h4.9219v21.281h-4.9219v-2.2188c-0.66797 0.90625-1.4062 1.5703-2.2188 1.9844s-1.7578 0.625-2.8281 0.625c-1.8867 0-3.4336-0.75-4.6406-2.25-1.2109-1.5-1.8125-3.4258-1.8125-5.7812 0-2.3633 0.60156-4.2969 1.8125-5.7969 1.207-1.5 2.7539-2.25 4.6406-2.25 1.0625 0 2 0.21484 2.8125 0.64062 0.82031 0.42969 1.5664 1.0859 2.2344 1.9688zm-3.2188 9.9219c1.0391 0 1.8359-0.37891 2.3906-1.1406 0.55078-0.76953 0.82812-1.8828 0.82812-3.3438 0-1.457-0.27734-2.5664-0.82812-3.3281-0.55469-0.76953-1.3516-1.1562-2.3906-1.1562-1.043 0-1.8398 0.38672-2.3906 1.1562-0.55469 0.76172-0.82812 1.8711-0.82812 3.3281 0 1.4609 0.27344 2.5742 0.82812 3.3438 0.55078 0.76172 1.3477 1.1406 2.3906 1.1406z" fill="#0288d1"/>
  </symbol>
  <symbol id="h" overflow="visible" fill="#0288d1">
   <path d="m10.5-3.1562c1.0508 0 1.8516-0.37891 2.4062-1.1406 0.55078-0.76953 0.82812-1.8828 0.82812-3.3438 0-1.457-0.27734-2.5664-0.82812-3.3281-0.55469-0.76953-1.3555-1.1562-2.4062-1.1562-1.0547 0-1.8594 0.38672-2.4219 1.1562-0.55469 0.77344-0.82812 1.8828-0.82812 3.3281 0 1.4492 0.27344 2.5586 0.82812 3.3281 0.5625 0.77344 1.3672 1.1562 2.4219 1.1562zm-3.25-9.9219c0.67578-0.88281 1.4219-1.5391 2.2344-1.9688 0.82031-0.42578 1.7656-0.64062 2.8281-0.64062 1.8945 0 3.4453 0.75 4.6562 2.25 1.207 1.5 1.8125 3.4336 1.8125 5.7969 0 2.3555-0.60547 4.2812-1.8125 5.7812-1.2109 1.5-2.7617 2.25-4.6562 2.25-1.0625 0-2.0078-0.21094-2.8281-0.625-0.8125-0.42578-1.5586-1.0859-2.2344-1.9844v2.2188h-4.8906v-21.281h4.8906z" fill="#0288d1"/>
  </symbol>
  <symbol id="f" overflow="visible" fill="#0288d1">
   <path d="m0.34375-15.312h4.8906l4.125 10.391 3.5-10.391h4.8906l-6.4375 16.766c-0.64844 1.6953-1.4023 2.8828-2.2656 3.5625-0.86719 0.6875-2 1.0312-3.4062 1.0312h-2.8438v-3.2188h1.5312c0.83203 0 1.4375-0.13672 1.8125-0.40625 0.38281-0.26172 0.67969-0.73047 0.89062-1.4062l0.14062-0.42188z" fill="#0288d1"/>
  </symbol>
  <symbol id="g" overflow="visible" fill="#0288d1">
   <path d="m2.5781-20.406h5.25v7.4375l7.5938-7.4375h6.1094l-9.8281 9.6562 10.844 10.75h-6.5938l-8.125-8.0469v8.0469h-5.25z" fill="#0288d1"/>
  </symbol>
  <symbol id="e" overflow="visible" fill="#0288d1">
   <path d="m2.3594-21.281h4.8906v21.281h-4.8906z" fill="#0288d1"/>
  </symbol>
  <symbol id="u" overflow="visible" fill="#0288d1">
   <path d="m2.5781-20.406h6.6875l4.6562 10.922 4.6719-10.922h6.6875v20.406h-4.9844v-14.938l-4.7031 11.016h-3.3281l-4.7031-11.016v14.938h-4.9844z" fill="#0288d1"/>
  </symbol>
  <symbol id="t" overflow="visible" fill="#0288d1">
   <path d="m2.3594-15.312h4.8906v15.312h-4.8906zm0-5.9688h4.8906v4h-4.8906z" fill="#0288d1"/>
  </symbol>
  <symbol id="s" overflow="visible" fill="#0288d1">
   <path d="m12.422-21.281v3.2188h-2.7031c-0.6875 0-1.1719 0.125-1.4531 0.375-0.27344 0.25-0.40625 0.6875-0.40625 1.3125v1.0625h4.1875v3.5h-4.1875v11.812h-4.8906v-11.812h-2.4375v-3.5h2.4375v-1.0625c0-1.6641 0.46094-2.8984 1.3906-3.7031 0.92578-0.80078 2.3672-1.2031 4.3281-1.2031z" fill="#0288d1"/>
  </symbol>
  <symbol id="d" overflow="visible" fill="#0288d1">
   <path d="m9.6406-12.188c-1.0859 0-1.9141 0.39062-2.4844 1.1719-0.57422 0.78125-0.85938 1.9062-0.85938 3.375s0.28516 2.5938 0.85938 3.375c0.57031 0.77344 1.3984 1.1562 2.4844 1.1562 1.0625 0 1.875-0.38281 2.4375-1.1562 0.57031-0.78125 0.85938-1.9062 0.85938-3.375s-0.28906-2.5938-0.85938-3.375c-0.5625-0.78125-1.375-1.1719-2.4375-1.1719zm0-3.5c2.6328 0 4.6914 0.71484 6.1719 2.1406 1.4766 1.418 2.2188 3.3867 2.2188 5.9062 0 2.5117-0.74219 4.4805-2.2188 5.9062-1.4805 1.418-3.5391 2.125-6.1719 2.125-2.6484 0-4.7148-0.70703-6.2031-2.125-1.4922-1.4258-2.2344-3.3945-2.2344-5.9062 0-2.5195 0.74219-4.4883 2.2344-5.9062 1.4883-1.4258 3.5547-2.1406 6.2031-2.1406z" fill="#0288d1"/>
  </symbol>
  <symbol id="r" overflow="visible" fill="#0288d1">
   <path d="m16.547-12.766c0.61328-0.94531 1.3477-1.6719 2.2031-2.1719 0.85156-0.5 1.7891-0.75 2.8125-0.75 1.7578 0 3.0977 0.54688 4.0156 1.6406 0.92578 1.0859 1.3906 2.6562 1.3906 4.7188v9.3281h-4.9219v-7.9844-0.35938c0.007813-0.13281 0.015625-0.32031 0.015625-0.5625 0-1.082-0.16406-1.8633-0.48438-2.3438-0.3125-0.48828-0.82422-0.73438-1.5312-0.73438-0.92969 0-1.6484 0.38672-2.1562 1.1562-0.51172 0.76172-0.77344 1.8672-0.78125 3.3125v7.5156h-4.9219v-7.9844c0-1.6953-0.14844-2.7852-0.4375-3.2656-0.29297-0.48828-0.8125-0.73438-1.5625-0.73438-0.9375 0-1.6641 0.38672-2.1719 1.1562-0.51172 0.76172-0.76562 1.8594-0.76562 3.2969v7.5312h-4.9219v-15.312h4.9219v2.2344c0.60156-0.86328 1.2891-1.5156 2.0625-1.9531 0.78125-0.4375 1.6406-0.65625 2.5781-0.65625 1.0625 0 2 0.25781 2.8125 0.76562 0.8125 0.51172 1.4258 1.2305 1.8438 2.1562z" fill="#0288d1"/>
  </symbol>
  <symbol id="q" overflow="visible" fill="#0288d1">
   <path d="m17.75-9.3281v9.3281h-4.9219v-7.1094c0-1.3438-0.03125-2.2656-0.09375-2.7656s-0.16797-0.86719-0.3125-1.1094c-0.1875-0.3125-0.44922-0.55469-0.78125-0.73438-0.32422-0.17578-0.69531-0.26562-1.1094-0.26562-1.0234 0-1.8242 0.39844-2.4062 1.1875-0.58594 0.78125-0.875 1.8711-0.875 3.2656v7.5312h-4.8906v-21.281h4.8906v8.2031c0.73828-0.88281 1.5195-1.5391 2.3438-1.9688 0.83203-0.42578 1.75-0.64062 2.75-0.64062 1.7695 0 3.1133 0.54688 4.0312 1.6406 0.91406 1.0859 1.375 2.6562 1.375 4.7188z" fill="#0288d1"/>
  </symbol>
  <symbol id="p" overflow="visible" fill="#0288d1">
   <path d="m2.5781-20.406h5.875l7.4219 14v-14h4.9844v20.406h-5.875l-7.4219-14v14h-4.9844z" fill="#0288d1"/>
  </symbol>
  <symbol id="o" overflow="visible" fill="#0288d1">
   <path d="m2.1875-5.9688v-9.3438h4.9219v1.5312c0 0.83594-0.007813 1.875-0.015625 3.125-0.011719 1.25-0.015625 2.0859-0.015625 2.5 0 1.2422 0.03125 2.1328 0.09375 2.6719 0.070313 0.54297 0.17969 0.93359 0.32812 1.1719 0.20703 0.32422 0.47266 0.57422 0.79688 0.75 0.32031 0.16797 0.69141 0.25 1.1094 0.25 1.0195 0 1.8203-0.39062 2.4062-1.1719 0.58203-0.78125 0.875-1.8672 0.875-3.2656v-7.5625h4.8906v15.312h-4.8906v-2.2188c-0.74219 0.89844-1.5234 1.5586-2.3438 1.9844-0.82422 0.41406-1.7344 0.625-2.7344 0.625-1.7617 0-3.1055-0.53906-4.0312-1.625-0.92969-1.082-1.3906-2.6602-1.3906-4.7344z" fill="#0288d1"/>
  </symbol>
  <symbol id="n" overflow="visible" fill="#0288d1">
   <path d="m17.75-9.3281v9.3281h-4.9219v-7.1406c0-1.3203-0.03125-2.2344-0.09375-2.7344s-0.16797-0.86719-0.3125-1.1094c-0.1875-0.3125-0.44922-0.55469-0.78125-0.73438-0.32422-0.17578-0.69531-0.26562-1.1094-0.26562-1.0234 0-1.8242 0.39844-2.4062 1.1875-0.58594 0.78125-0.875 1.8711-0.875 3.2656v7.5312h-4.8906v-15.312h4.8906v2.2344c0.73828-0.88281 1.5195-1.5391 2.3438-1.9688 0.83203-0.42578 1.75-0.64062 2.75-0.64062 1.7695 0 3.1133 0.54688 4.0312 1.6406 0.91406 1.0859 1.375 2.6562 1.375 4.7188z" fill="#0288d1"/>
  </symbol>
  <symbol id="m" overflow="visible" fill="#0288d1">
   <path d="m2.5781-20.406h8.7344c2.5938 0 4.582 0.57812 5.9688 1.7344 1.3945 1.1484 2.0938 2.7891 2.0938 4.9219 0 2.1367-0.69922 3.7812-2.0938 4.9375-1.3867 1.1562-3.375 1.7344-5.9688 1.7344h-3.4844v7.0781h-5.25zm5.25 3.8125v5.7031h2.9219c1.0195 0 1.8047-0.25 2.3594-0.75 0.5625-0.5 0.84375-1.2031 0.84375-2.1094 0-0.91406-0.28125-1.6172-0.84375-2.1094-0.55469-0.48828-1.3398-0.73438-2.3594-0.73438z" fill="#0288d1"/>
  </symbol>
  <symbol id="l" overflow="visible" fill="#0288d1">
   <path d="m2.3594-15.312h4.8906v15.031c0 2.0508-0.49609 3.6172-1.4844 4.7031-0.98047 1.082-2.4062 1.625-4.2812 1.625h-2.4219v-3.2188h0.85938c0.92578 0 1.5625-0.21094 1.9062-0.625 0.35156-0.41797 0.53125-1.2461 0.53125-2.4844zm0-5.9688h4.8906v4h-4.8906z" fill="#0288d1"/>
  </symbol>
  <symbol id="k" overflow="visible" fill="#0288d1">
   <path d="m14.719-14.828v3.9844c-0.65625-0.45703-1.3242-0.79688-2-1.0156-0.66797-0.21875-1.3594-0.32812-2.0781-0.32812-1.3672 0-2.4336 0.40234-3.2031 1.2031-0.76172 0.79297-1.1406 1.9062-1.1406 3.3438 0 1.4297 0.37891 2.543 1.1406 3.3438 0.76953 0.79297 1.8359 1.1875 3.2031 1.1875 0.75781 0 1.4844-0.10938 2.1719-0.32812 0.6875-0.22656 1.3203-0.56641 1.9062-1.0156v4c-0.76172 0.28125-1.5391 0.48828-2.3281 0.625-0.78125 0.14453-1.5742 0.21875-2.375 0.21875-2.7617 0-4.9219-0.70703-6.4844-2.125-1.5547-1.4141-2.3281-3.3828-2.3281-5.9062 0-2.5312 0.77344-4.5039 2.3281-5.9219 1.5625-1.4141 3.7227-2.125 6.4844-2.125 0.80078 0 1.5938 0.074219 2.375 0.21875 0.78125 0.13672 1.5547 0.35156 2.3281 0.64062z" fill="#0288d1"/>
  </symbol>
 </defs>
 <g>
  <path d="m308.95 316.18c-0.99609-2.9375-2.5117-5.668-4.4805-8.0625-1.9336-2.207-4.1992-4.0977-6.7188-5.6016-2.5781-1.5391-5.3711-2.6719-8.2891-3.3594v-0.72656c2.4141-0.83203 4.6133-2.1914 6.4375-3.9766 1.8594-1.8086 3.4609-3.8633 4.7617-6.1055 1.3438-2.3203 2.3789-4.8047 3.0781-7.3906 0.71094-2.5938 1.0703-5.2656 1.0664-7.9531 0.1875-4.9062-0.97266-9.7656-3.3594-14.055-2.2188-3.7578-5.3867-6.8672-9.1836-9.0156-4.2422-2.4297-8.8945-4.0625-13.723-4.8164-5.5508-0.91797-11.172-1.3672-16.801-1.3438h-34.941c-2.9062 0-5.2656 2.3555-5.2656 5.2617v107.07c0 2.9062 2.3594 5.2617 5.2656 5.2617h38.414c5.9219 0.003906 11.824-0.69141 17.586-2.0703 5.1758-1.3008 10.086-3.5 14.504-6.4961 4.0664-2.7461 7.4102-6.4336 9.7422-10.754 3.9219-8.1211 4.6016-17.434 1.9062-26.039zm-61.152-46.648c0-2.9062 2.3555-5.2617 5.2617-5.2617h7.3359c4.8281-0.3125 9.6484 0.69141 13.945 2.9102 3.1328 2.2109 4.8398 5.9297 4.4805 9.7461 0.15625 3.8594-1.4766 7.5781-4.4258 10.078-4.1289 2.8867-9.1445 4.2344-14.168 3.8086h-7.168c-2.9062 0-5.2617-2.3555-5.2617-5.2656zm14.953 71.23-9.6914 0.003907c-1.3906 0.011719-2.7305-0.52734-3.7188-1.5078-0.98828-0.97656-1.543-2.3125-1.543-3.7031v-19.824c0-2.9062 2.3555-5.2617 5.2617-5.2617h9.6914c5.6875-0.36719 11.371 0.79297 16.461 3.3594 3.8164 2.3906 5.9766 6.7148 5.6016 11.199-0.14844 10.492-7.5039 15.738-22.062 15.738z" fill="#0288d1"/>
  <path d="m378 247.41c-0.66406-2.1953-2.6914-3.6953-4.9844-3.6953h-24.137c-2.293 0-4.3164 1.5-4.9844 3.6953l-33.602 107.13h0.003906c-0.5 1.6016-0.20703 3.3438 0.78906 4.6953 0.99609 1.3477 2.5742 2.1406 4.25 2.1367h15.848c2.4102-0.003907 4.5078-1.6406 5.0977-3.9766l5.1523-20.047c0.58594-2.3359 2.6875-3.9727 5.0938-3.9766h28c2.4102 0.003906 4.5078 1.6406 5.0977 3.9766l5.1523 20.047c0.58594 2.3359 2.6875 3.9727 5.0938 3.9766h16.801c1.6758 0.003906 3.2539-0.78906 4.25-2.1367 0.99609-1.3516 1.2891-3.0938 0.78906-4.6953zm-11.703 65.242h-11.535c-1.6367 0-3.1797-0.75391-4.1758-2.0508-1-1.293-1.3398-2.9766-0.92188-4.5586l1.1758-4.1992c1.6797-5.9375 3.2461-12.152 4.7617-18.703l4.4258-19.207h0.72656c1.5664 6.1602 3.1367 12.488 4.6484 19.152 1.5117 6.6641 3.1914 12.824 4.8711 18.762l1.1211 4.2578-0.003906-0.003906c0.39844 1.5703 0.046875 3.2383-0.94922 4.5195-0.99219 1.2773-2.5234 2.0273-4.1445 2.0312z" fill="#0288d1"/>
  <path d="m482.89 243.71h-80.809c-2.9062 0-5.2617 2.3594-5.2617 5.2656v11.871c0 2.9062 2.3555 5.2656 5.2617 5.2656h21.785c2.8867 0 5.2344 2.3203 5.2656 5.207v84.785c0 2.9062 2.3555 5.2617 5.2617 5.2617h16.41c2.9062 0 5.2617-2.3555 5.2617-5.2617v-84.785c0-2.875 2.332-5.207 5.2109-5.207h21.84c2.8828-0.03125 5.207-2.3789 5.207-5.2656v-11.871c0-1.4258-0.57812-2.793-1.6016-3.7852-1.0234-0.99219-2.4062-1.5234-3.832-1.4805z" fill="#0288d1"/>
  <path d="m557.2 141.9-90.047-98.504c-8.957-9.793-21.613-15.379-34.887-15.398h-254.58c-12.531 0.015625-24.543 5-33.402 13.859-8.8633 8.8594-13.848 20.875-13.859 33.406v409.47c0.011719 12.531 4.9961 24.547 13.859 33.406 8.8594 8.8594 20.871 13.844 33.402 13.859h344.62c12.531-0.015625 24.543-5 33.402-13.859 8.8633-8.8594 13.848-20.875 13.859-33.406v-311.13c-0.023438-11.742-4.4375-23.047-12.375-31.699zm-29.848 14.055-58.016 0.003907c-4.207-0.015626-8.2344-1.7109-11.191-4.707-2.9531-2.9961-4.5898-7.0469-4.543-11.254v-64.734zm-5.0391 344.57-344.62 0.003906c-4.1836-0.015625-8.1914-1.6836-11.148-4.6406-2.9609-2.957-4.6289-6.9688-4.6445-11.152v-409.47c0.015625-4.1836 1.6836-8.1953 4.6445-11.152 2.957-2.957 6.9648-4.625 11.148-4.6406h244.38v80.527c0.015626 12.531 5 24.543 13.863 33.406 8.8594 8.8594 20.871 13.844 33.402 13.859h68.77v297.47c0 4.1914-1.6641 8.207-4.625 11.168-2.9648 2.9609-6.9805 4.625-11.168 4.625z" fill="#0288d1"/>
  <!-- <use x="70" y="644" xlink:href="#v" fill="#0288d1"/>
  <use x="90.550781" y="644" xlink:href="#b" fill="#0288d1"/>
  <use x="104.359375" y="644" xlink:href="#a" fill="#0288d1"/>
  <use x="123.347656" y="644" xlink:href="#j" fill="#0288d1"/>
  <use x="142.242188" y="644" xlink:href="#c" fill="#0288d1"/>
  <use x="155.628906" y="644" xlink:href="#a" fill="#0288d1"/>
  <use x="174.617188" y="644" xlink:href="#i" fill="#0288d1"/>
  <use x="204.410156" y="644" xlink:href="#h" fill="#0288d1"/>
  <use x="224.453125" y="644" xlink:href="#f" fill="#0288d1"/>
  <use x="252.453125" y="644" xlink:href="#g" fill="#0288d1"/>
  <use x="274.148438" y="644" xlink:href="#f" fill="#0288d1"/>
  <use x="292.402344" y="644" xlink:href="#e" fill="#0288d1"/>
  <use x="302" y="644" xlink:href="#a" fill="#0288d1"/>
  <use x="330.734375" y="644" xlink:href="#u" fill="#0288d1"/>
  <use x="358.601562" y="644" xlink:href="#t" fill="#0288d1"/>
  <use x="368.195312" y="644" xlink:href="#e" fill="#0288d1"/>
  <use x="377.796875" y="644" xlink:href="#e" fill="#0288d1"/>
  <use x="387.390625" y="644" xlink:href="#a" fill="#0288d1"/>
  <use x="406.382812" y="644" xlink:href="#b" fill="#0288d1"/>
  <use x="70" y="672" xlink:href="#s" fill="#0288d1"/>
  <use x="82.183594" y="672" xlink:href="#b" fill="#0288d1"/>
  <use x="95.992188" y="672" xlink:href="#d" fill="#0288d1"/>
  <use x="115.226562" y="672" xlink:href="#r" fill="#0288d1"/>
  <use x="154.152344" y="672" xlink:href="#c" fill="#0288d1"/>
  <use x="167.535156" y="672" xlink:href="#q" fill="#0288d1"/>
  <use x="187.46875" y="672" xlink:href="#a" fill="#0288d1"/>
  <use x="216.207031" y="672" xlink:href="#p" fill="#0288d1"/>
  <use x="239.640625" y="672" xlink:href="#d" fill="#0288d1"/>
  <use x="258.878906" y="672" xlink:href="#o" fill="#0288d1"/>
  <use x="278.8125" y="672" xlink:href="#n" fill="#0288d1"/>
  <use x="308.492188" y="672" xlink:href="#m" fill="#0288d1"/>
  <use x="329.015625" y="672" xlink:href="#b" fill="#0288d1"/>
  <use x="342.820312" y="672" xlink:href="#d" fill="#0288d1"/>
  <use x="362.058594" y="672" xlink:href="#l" fill="#0288d1"/>
  <use x="371.65625" y="672" xlink:href="#a" fill="#0288d1"/>
  <use x="390.648438" y="672" xlink:href="#k" fill="#0288d1"/>
  <use x="407.242188" y="672" xlink:href="#c" fill="#0288d1"/> -->
 </g>
</svg>