<svg xmlns="http://www.w3.org/2000/svg" xmlns:xlink="http://www.w3.org/1999/xlink" width="500pt" height="500pt" version="1.1" viewBox="0 0 700 700">
 <defs fill="#0288d1">
  <symbol id="v" overflow="visible" fill="#0288d1">
   <path d="m18.766-1.125c-0.96875 0.5-1.9805 0.875-3.0312 1.125-1.043 0.25781-2.1367 0.39062-3.2812 0.39062-3.3984 0-6.0898-0.94531-8.0781-2.8438-1.9922-1.9062-2.9844-4.4844-2.9844-7.7344 0-3.2578 0.99219-5.8359 2.9844-7.7344 1.9883-1.9062 4.6797-2.8594 8.0781-2.8594 1.1445 0 2.2383 0.13281 3.2812 0.39062 1.0508 0.25 2.0625 0.625 3.0312 1.125v4.2188c-0.98047-0.65625-1.9453-1.1406-2.8906-1.4531-0.94922-0.3125-1.9492-0.46875-3-0.46875-1.875 0-3.3516 0.60547-4.4219 1.8125-1.0742 1.1992-1.6094 2.8555-1.6094 4.9688 0 2.1055 0.53516 3.7617 1.6094 4.9688 1.0703 1.1992 2.5469 1.7969 4.4219 1.7969 1.0508 0 2.0508-0.14844 3-0.45312 0.94531-0.3125 1.9102-0.80078 2.8906-1.4688z" fill="#0288d1"/>
  </symbol>
  <symbol id="b" overflow="visible" fill="#0288d1">
   <path d="m13.734-11.141c-0.4375-0.19531-0.87109-0.34375-1.2969-0.4375-0.41797-0.10156-0.83984-0.15625-1.2656-0.15625-1.2617 0-2.2305 0.40625-2.9062 1.2188-0.67969 0.80469-1.0156 1.9531-1.0156 3.4531v7.0625h-4.8906v-15.312h4.8906v2.5156c0.625-1 1.3438-1.7266 2.1562-2.1875 0.82031-0.46875 1.8008-0.70312 2.9375-0.70312 0.16406 0 0.34375 0.011719 0.53125 0.03125 0.19531 0.011719 0.47656 0.039062 0.84375 0.078125z" fill="#0288d1"/>
  </symbol>
  <symbol id="a" overflow="visible" fill="#0288d1">
   <path d="m17.641-7.7031v1.4062h-11.453c0.125 1.1484 0.53906 2.0078 1.25 2.5781 0.70703 0.57422 1.7031 0.85938 2.9844 0.85938 1.0312 0 2.082-0.14844 3.1562-0.45312 1.082-0.3125 2.1914-0.77344 3.3281-1.3906v3.7656c-1.1562 0.4375-2.3125 0.76562-3.4688 0.98438-1.1562 0.22656-2.3125 0.34375-3.4688 0.34375-2.7734 0-4.9297-0.70312-6.4688-2.1094-1.5312-1.4062-2.2969-3.3789-2.2969-5.9219 0-2.5 0.75391-4.4609 2.2656-5.8906 1.5078-1.4375 3.582-2.1562 6.2188-2.1562 2.4062 0 4.332 0.73047 5.7812 2.1875 1.4453 1.4492 2.1719 3.3828 2.1719 5.7969zm-5.0312-1.625c0-0.92578-0.27344-1.6719-0.8125-2.2344-0.54297-0.57031-1.25-0.85938-2.125-0.85938-0.94922 0-1.7188 0.26562-2.3125 0.79688s-0.96484 1.2969-1.1094 2.2969z" fill="#0288d1"/>
  </symbol>
  <symbol id="f" overflow="visible" fill="#0288d1">
   <path d="m9.2188-6.8906c-1.0234 0-1.793 0.17188-2.3125 0.51562-0.51172 0.34375-0.76562 0.85547-0.76562 1.5312 0 0.625 0.20703 1.1172 0.625 1.4688 0.41406 0.34375 0.98828 0.51562 1.7188 0.51562 0.92578 0 1.7031-0.32812 2.3281-0.98438 0.63281-0.66406 0.95312-1.4922 0.95312-2.4844v-0.5625zm7.4688-1.8438v8.7344h-4.9219v-2.2656c-0.65625 0.92969-1.3984 1.6055-2.2188 2.0312-0.82422 0.41406-1.8242 0.625-3 0.625-1.5859 0-2.8711-0.45703-3.8594-1.375-0.99219-0.92578-1.4844-2.1289-1.4844-3.6094 0-1.7891 0.61328-3.1016 1.8438-3.9375 1.2383-0.84375 3.1797-1.2656 5.8281-1.2656h2.8906v-0.39062c0-0.76953-0.30859-1.332-0.92188-1.6875-0.61719-0.36328-1.5703-0.54688-2.8594-0.54688-1.0547 0-2.0312 0.10547-2.9375 0.3125-0.89844 0.21094-1.7305 0.52344-2.5 0.9375v-3.7344c1.0391-0.25 2.0859-0.44141 3.1406-0.57812 1.0625-0.13281 2.125-0.20312 3.1875-0.20312 2.7578 0 4.75 0.54688 5.9688 1.6406 1.2266 1.0859 1.8438 2.8555 1.8438 5.3125z" fill="#0288d1"/>
  </symbol>
  <symbol id="c" overflow="visible" fill="#0288d1">
   <path d="m7.7031-19.656v4.3438h5.0469v3.5h-5.0469v6.5c0 0.71094 0.14062 1.1875 0.42188 1.4375s0.83594 0.375 1.6719 0.375h2.5156v3.5h-4.1875c-1.9375 0-3.3125-0.39844-4.125-1.2031-0.80469-0.8125-1.2031-2.1797-1.2031-4.1094v-6.5h-2.4219v-3.5h2.4219v-4.3438z" fill="#0288d1"/>
  </symbol>
  <symbol id="k" overflow="visible" fill="#0288d1">
   <path d="m12.766-13.078v-8.2031h4.9219v21.281h-4.9219v-2.2188c-0.66797 0.90625-1.4062 1.5703-2.2188 1.9844s-1.7578 0.625-2.8281 0.625c-1.8867 0-3.4336-0.75-4.6406-2.25-1.2109-1.5-1.8125-3.4258-1.8125-5.7812 0-2.3633 0.60156-4.2969 1.8125-5.7969 1.207-1.5 2.7539-2.25 4.6406-2.25 1.0625 0 2 0.21484 2.8125 0.64062 0.82031 0.42969 1.5664 1.0859 2.2344 1.9688zm-3.2188 9.9219c1.0391 0 1.8359-0.37891 2.3906-1.1406 0.55078-0.76953 0.82812-1.8828 0.82812-3.3438 0-1.457-0.27734-2.5664-0.82812-3.3281-0.55469-0.76953-1.3516-1.1562-2.3906-1.1562-1.043 0-1.8398 0.38672-2.3906 1.1562-0.55469 0.76172-0.82812 1.8711-0.82812 3.3281 0 1.4609 0.27344 2.5742 0.82812 3.3438 0.55078 0.76172 1.3477 1.1406 2.3906 1.1406z" fill="#0288d1"/>
  </symbol>
  <symbol id="e" overflow="visible" fill="#0288d1">
   <path d="m10.5-3.1562c1.0508 0 1.8516-0.37891 2.4062-1.1406 0.55078-0.76953 0.82812-1.8828 0.82812-3.3438 0-1.457-0.27734-2.5664-0.82812-3.3281-0.55469-0.76953-1.3555-1.1562-2.4062-1.1562-1.0547 0-1.8594 0.38672-2.4219 1.1562-0.55469 0.77344-0.82812 1.8828-0.82812 3.3281 0 1.4492 0.27344 2.5586 0.82812 3.3281 0.5625 0.77344 1.3672 1.1562 2.4219 1.1562zm-3.25-9.9219c0.67578-0.88281 1.4219-1.5391 2.2344-1.9688 0.82031-0.42578 1.7656-0.64062 2.8281-0.64062 1.8945 0 3.4453 0.75 4.6562 2.25 1.207 1.5 1.8125 3.4336 1.8125 5.7969 0 2.3555-0.60547 4.2812-1.8125 5.7812-1.2109 1.5-2.7617 2.25-4.6562 2.25-1.0625 0-2.0078-0.21094-2.8281-0.625-0.8125-0.42578-1.5586-1.0859-2.2344-1.9844v2.2188h-4.8906v-21.281h4.8906z" fill="#0288d1"/>
  </symbol>
  <symbol id="j" overflow="visible" fill="#0288d1">
   <path d="m0.34375-15.312h4.8906l4.125 10.391 3.5-10.391h4.8906l-6.4375 16.766c-0.64844 1.6953-1.4023 2.8828-2.2656 3.5625-0.86719 0.6875-2 1.0312-3.4062 1.0312h-2.8438v-3.2188h1.5312c0.83203 0 1.4375-0.13672 1.8125-0.40625 0.38281-0.26172 0.67969-0.73047 0.89062-1.4062l0.14062-0.42188z" fill="#0288d1"/>
  </symbol>
  <symbol id="i" overflow="visible" fill="#0288d1">
   <path d="m2.5781-20.406h5.25v16.422h9.25v3.9844h-14.5z" fill="#0288d1"/>
  </symbol>
  <symbol id="h" overflow="visible" fill="#0288d1">
   <path d="m14.312-14.828v3.7188c-1.043-0.4375-2.0547-0.76562-3.0312-0.98438-0.98047-0.21875-1.9023-0.32812-2.7656-0.32812-0.92969 0-1.6211 0.11719-2.0781 0.34375-0.44922 0.23047-0.67188 0.58984-0.67188 1.0781 0 0.38672 0.17188 0.68359 0.51562 0.89062 0.34375 0.21094 0.95703 0.36719 1.8438 0.46875l0.85938 0.125c2.5078 0.32422 4.1953 0.85156 5.0625 1.5781 0.86328 0.73047 1.2969 1.8711 1.2969 3.4219 0 1.6367-0.60547 2.8672-1.8125 3.6875-1.1992 0.8125-2.9922 1.2188-5.375 1.2188-1.0234 0-2.0742-0.078125-3.1562-0.23438-1.0742-0.15625-2.1797-0.39453-3.3125-0.71875v-3.7188c0.96875 0.48047 1.9609 0.83984 2.9844 1.0781 1.0312 0.23047 2.0781 0.34375 3.1406 0.34375 0.95703 0 1.6758-0.12891 2.1562-0.39062 0.47656-0.26953 0.71875-0.66406 0.71875-1.1875 0-0.4375-0.16797-0.75781-0.5-0.96875-0.33594-0.21875-0.99609-0.38281-1.9844-0.5l-0.85938-0.10938c-2.1797-0.26953-3.7031-0.77344-4.5781-1.5156-0.875-0.73828-1.3125-1.8594-1.3125-3.3594 0-1.625 0.55078-2.8281 1.6562-3.6094 1.1133-0.78906 2.8203-1.1875 5.125-1.1875 0.89453 0 1.8359 0.074219 2.8281 0.21875 1 0.13672 2.082 0.35156 3.25 0.64062z" fill="#0288d1"/>
  </symbol>
  <symbol id="u" overflow="visible" fill="#0288d1">
   <path d="m2.5781-20.406h6.6875l4.6562 10.922 4.6719-10.922h6.6875v20.406h-4.9844v-14.938l-4.7031 11.016h-3.3281l-4.7031-11.016v14.938h-4.9844z" fill="#0288d1"/>
  </symbol>
  <symbol id="t" overflow="visible" fill="#0288d1">
   <path d="m2.3594-15.312h4.8906v15.312h-4.8906zm0-5.9688h4.8906v4h-4.8906z" fill="#0288d1"/>
  </symbol>
  <symbol id="d" overflow="visible" fill="#0288d1">
   <path d="m9.6406-12.188c-1.0859 0-1.9141 0.39062-2.4844 1.1719-0.57422 0.78125-0.85938 1.9062-0.85938 3.375s0.28516 2.5938 0.85938 3.375c0.57031 0.77344 1.3984 1.1562 2.4844 1.1562 1.0625 0 1.875-0.38281 2.4375-1.1562 0.57031-0.78125 0.85938-1.9062 0.85938-3.375s-0.28906-2.5938-0.85938-3.375c-0.5625-0.78125-1.375-1.1719-2.4375-1.1719zm0-3.5c2.6328 0 4.6914 0.71484 6.1719 2.1406 1.4766 1.418 2.2188 3.3867 2.2188 5.9062 0 2.5117-0.74219 4.4805-2.2188 5.9062-1.4805 1.418-3.5391 2.125-6.1719 2.125-2.6484 0-4.7148-0.70703-6.2031-2.125-1.4922-1.4258-2.2344-3.3945-2.2344-5.9062 0-2.5195 0.74219-4.4883 2.2344-5.9062 1.4883-1.4258 3.5547-2.1406 6.2031-2.1406z" fill="#0288d1"/>
  </symbol>
  <symbol id="g" overflow="visible" fill="#0288d1">
   <path d="m17.75-9.3281v9.3281h-4.9219v-7.1406c0-1.3203-0.03125-2.2344-0.09375-2.7344s-0.16797-0.86719-0.3125-1.1094c-0.1875-0.3125-0.44922-0.55469-0.78125-0.73438-0.32422-0.17578-0.69531-0.26562-1.1094-0.26562-1.0234 0-1.8242 0.39844-2.4062 1.1875-0.58594 0.78125-0.875 1.8711-0.875 3.2656v7.5312h-4.8906v-15.312h4.8906v2.2344c0.73828-0.88281 1.5195-1.5391 2.3438-1.9688 0.83203-0.42578 1.75-0.64062 2.75-0.64062 1.7695 0 3.1133 0.54688 4.0312 1.6406 0.91406 1.0859 1.375 2.6562 1.375 4.7188z" fill="#0288d1"/>
  </symbol>
  <symbol id="s" overflow="visible" fill="#0288d1">
   <path d="m12.422-21.281v3.2188h-2.7031c-0.6875 0-1.1719 0.125-1.4531 0.375-0.27344 0.25-0.40625 0.6875-0.40625 1.3125v1.0625h4.1875v3.5h-4.1875v11.812h-4.8906v-11.812h-2.4375v-3.5h2.4375v-1.0625c0-1.6641 0.46094-2.8984 1.3906-3.7031 0.92578-0.80078 2.3672-1.2031 4.3281-1.2031z" fill="#0288d1"/>
  </symbol>
  <symbol id="r" overflow="visible" fill="#0288d1">
   <path d="m16.547-12.766c0.61328-0.94531 1.3477-1.6719 2.2031-2.1719 0.85156-0.5 1.7891-0.75 2.8125-0.75 1.7578 0 3.0977 0.54688 4.0156 1.6406 0.92578 1.0859 1.3906 2.6562 1.3906 4.7188v9.3281h-4.9219v-7.9844-0.35938c0.007813-0.13281 0.015625-0.32031 0.015625-0.5625 0-1.082-0.16406-1.8633-0.48438-2.3438-0.3125-0.48828-0.82422-0.73438-1.5312-0.73438-0.92969 0-1.6484 0.38672-2.1562 1.1562-0.51172 0.76172-0.77344 1.8672-0.78125 3.3125v7.5156h-4.9219v-7.9844c0-1.6953-0.14844-2.7852-0.4375-3.2656-0.29297-0.48828-0.8125-0.73438-1.5625-0.73438-0.9375 0-1.6641 0.38672-2.1719 1.1562-0.51172 0.76172-0.76562 1.8594-0.76562 3.2969v7.5312h-4.9219v-15.312h4.9219v2.2344c0.60156-0.86328 1.2891-1.5156 2.0625-1.9531 0.78125-0.4375 1.6406-0.65625 2.5781-0.65625 1.0625 0 2 0.25781 2.8125 0.76562 0.8125 0.51172 1.4258 1.2305 1.8438 2.1562z" fill="#0288d1"/>
  </symbol>
  <symbol id="q" overflow="visible" fill="#0288d1">
   <path d="m17.75-9.3281v9.3281h-4.9219v-7.1094c0-1.3438-0.03125-2.2656-0.09375-2.7656s-0.16797-0.86719-0.3125-1.1094c-0.1875-0.3125-0.44922-0.55469-0.78125-0.73438-0.32422-0.17578-0.69531-0.26562-1.1094-0.26562-1.0234 0-1.8242 0.39844-2.4062 1.1875-0.58594 0.78125-0.875 1.8711-0.875 3.2656v7.5312h-4.8906v-21.281h4.8906v8.2031c0.73828-0.88281 1.5195-1.5391 2.3438-1.9688 0.83203-0.42578 1.75-0.64062 2.75-0.64062 1.7695 0 3.1133 0.54688 4.0312 1.6406 0.91406 1.0859 1.375 2.6562 1.375 4.7188z" fill="#0288d1"/>
  </symbol>
  <symbol id="p" overflow="visible" fill="#0288d1">
   <path d="m2.5781-20.406h5.875l7.4219 14v-14h4.9844v20.406h-5.875l-7.4219-14v14h-4.9844z" fill="#0288d1"/>
  </symbol>
  <symbol id="o" overflow="visible" fill="#0288d1">
   <path d="m2.1875-5.9688v-9.3438h4.9219v1.5312c0 0.83594-0.007813 1.875-0.015625 3.125-0.011719 1.25-0.015625 2.0859-0.015625 2.5 0 1.2422 0.03125 2.1328 0.09375 2.6719 0.070313 0.54297 0.17969 0.93359 0.32812 1.1719 0.20703 0.32422 0.47266 0.57422 0.79688 0.75 0.32031 0.16797 0.69141 0.25 1.1094 0.25 1.0195 0 1.8203-0.39062 2.4062-1.1719 0.58203-0.78125 0.875-1.8672 0.875-3.2656v-7.5625h4.8906v15.312h-4.8906v-2.2188c-0.74219 0.89844-1.5234 1.5586-2.3438 1.9844-0.82422 0.41406-1.7344 0.625-2.7344 0.625-1.7617 0-3.1055-0.53906-4.0312-1.625-0.92969-1.082-1.3906-2.6602-1.3906-4.7344z" fill="#0288d1"/>
  </symbol>
  <symbol id="n" overflow="visible" fill="#0288d1">
   <path d="m2.5781-20.406h8.7344c2.5938 0 4.582 0.57812 5.9688 1.7344 1.3945 1.1484 2.0938 2.7891 2.0938 4.9219 0 2.1367-0.69922 3.7812-2.0938 4.9375-1.3867 1.1562-3.375 1.7344-5.9688 1.7344h-3.4844v7.0781h-5.25zm5.25 3.8125v5.7031h2.9219c1.0195 0 1.8047-0.25 2.3594-0.75 0.5625-0.5 0.84375-1.2031 0.84375-2.1094 0-0.91406-0.28125-1.6172-0.84375-2.1094-0.55469-0.48828-1.3398-0.73438-2.3594-0.73438z" fill="#0288d1"/>
  </symbol>
  <symbol id="m" overflow="visible" fill="#0288d1">
   <path d="m2.3594-15.312h4.8906v15.031c0 2.0508-0.49609 3.6172-1.4844 4.7031-0.98047 1.082-2.4062 1.625-4.2812 1.625h-2.4219v-3.2188h0.85938c0.92578 0 1.5625-0.21094 1.9062-0.625 0.35156-0.41797 0.53125-1.2461 0.53125-2.4844zm0-5.9688h4.8906v4h-4.8906z" fill="#0288d1"/>
  </symbol>
  <symbol id="l" overflow="visible" fill="#0288d1">
   <path d="m14.719-14.828v3.9844c-0.65625-0.45703-1.3242-0.79688-2-1.0156-0.66797-0.21875-1.3594-0.32812-2.0781-0.32812-1.3672 0-2.4336 0.40234-3.2031 1.2031-0.76172 0.79297-1.1406 1.9062-1.1406 3.3438 0 1.4297 0.37891 2.543 1.1406 3.3438 0.76953 0.79297 1.8359 1.1875 3.2031 1.1875 0.75781 0 1.4844-0.10938 2.1719-0.32812 0.6875-0.22656 1.3203-0.56641 1.9062-1.0156v4c-0.76172 0.28125-1.5391 0.48828-2.3281 0.625-0.78125 0.14453-1.5742 0.21875-2.375 0.21875-2.7617 0-4.9219-0.70703-6.4844-2.125-1.5547-1.4141-2.3281-3.3828-2.3281-5.9062 0-2.5312 0.77344-4.5039 2.3281-5.9219 1.5625-1.4141 3.7227-2.125 6.4844-2.125 0.80078 0 1.5938 0.074219 2.375 0.21875 0.78125 0.13672 1.5547 0.35156 2.3281 0.64062z" fill="#0288d1"/>
  </symbol>
 </defs>
 <g>
  <path d="m533.06 102.26c-19.656 11.93-36.23 16.801-50.398 16.801-59.863-0.003906-70.391-91.059-70.391-91.059h-120.68s-10.531 91.055-70.73 91.055c-13.887 0-30.406-4.8711-50.062-16.801l-33.602 93.355s81.145 25.535 74.703 155.29c0 0-4.1992 60.648-56 78.398l49.391 94.414s23.465-34.441 64.457-34.441c22.398 0 50.398 10.359 82.32 42.449 32.09-32.09 59.863-42.449 82.375-42.449 40.992 0 64.398 34.441 64.398 34.441l49.449-94.414c-51.969-18.031-56-78.398-56-78.398-6.7734-129.75 74.371-155.29 74.371-155.29zm-285.99 197.68c1.1953 9.4336 1.793 18.938 1.793 28.445 0 2.3203-1.8789 4.2031-4.1992 4.2031-2.3203 0-4.1992-1.8828-4.1992-4.2031 0.019531-9.1562-0.5625-18.301-1.7383-27.383-0.29297-2.3047 1.3359-4.4102 3.6406-4.7031 2.3047-0.29297 4.4102 1.3359 4.7031 3.6406zm-8.5117-22.848h-1.1211 0.003906c-1.8828-0.007813-3.5312-1.2695-4.0352-3.082-2.4453-8.8125-5.5156-17.438-9.1836-25.816-0.92578-2.1328 0.050782-4.6172 2.1836-5.543 2.1367-0.92969 4.6172 0.050781 5.5469 2.1836 3.8359 8.7305 7.0195 17.734 9.5195 26.938 0.35938 1.0898 0.25391 2.2812-0.30078 3.293-0.55078 1.0078-1.4961 1.7422-2.6133 2.0273zm-41.328-134.4v-0.003906c0.28906-1.0781 0.99609-1.9961 1.9609-2.5508 0.96875-0.55859 2.1172-0.70703 3.1914-0.41797 8.4688 2.3359 17.203 3.5625 25.984 3.6406 2.3516-0.03125 4.3047 1.7969 4.4258 4.1445 0.09375 1.0859-0.26953 2.1641-1.0039 2.9727-0.73437 0.80469-1.7695 1.2734-2.8594 1.2852h-0.61719c-9.4648-0.070313-18.879-1.3906-28-3.9219-1.0977-0.26562-2.043-0.96094-2.625-1.9297-0.57812-0.96875-0.74219-2.1289-0.45703-3.2227zm-9.2969 14.504-7.9531 19.488 0.39062 0.28125 0.003906-0.003906c1.7656 0.97656 2.5898 3.0703 1.957 4.9844-0.62891 1.918-2.5312 3.1172-4.5312 2.8555-0.9375 0-1.8438-0.31641-2.5781-0.89844-1.5117-1.1758-2.4648-1.8477-2.7422-2.0156-1.5117-1.0703-2.1875-2.9766-1.6797-4.7578l9.4062-22.848c1.0156-1.9141 3.3164-2.7422 5.3164-1.9141 1.9961 0.82422 3.043 3.0352 2.4141 5.1055zm23.406 67.199 0.003906-0.003906c-4.8789-7.7227-10.363-15.043-16.406-21.895-1.5469-1.7461-1.3867-4.418 0.36328-5.9648 1.7461-1.5469 4.418-1.3828 5.9648 0.36328 6.2852 7.2031 12.031 14.859 17.191 22.906 1.0859 1.918 0.52734 4.3477-1.2891 5.5977-1.9141 1.1172-4.3633 0.55078-5.6016-1.2852zm9.4062 250.88c-3.5859 1.0625-5.6016 1.793-5.6016 1.793l0.007813-0.003906c-2.043 0.79297-4.3477-0.13672-5.2656-2.125l-9.2969-19.77h0.003906c-0.47656-1.0117-0.53125-2.168-0.15234-3.2188 0.375-1.0508 1.1562-1.9062 2.168-2.3828 2.1016-0.98828 4.6094-0.085937 5.5977 2.0195l7.3945 16.293 2.5195-0.78516v0.003906c2.2266-0.66797 4.5703 0.59766 5.2344 2.8281 0.66406 2.2266-0.60156 4.5703-2.8281 5.2344zm8.0078-64.008h0.007813c-4.8438 8.4023-10.715 16.172-17.473 23.125-0.78516 0.79297-1.8555 1.2383-2.9688 1.2344-1.1055 0-2.1641-0.41797-2.9688-1.1758-1.6367-1.6406-1.6367-4.2969 0-5.9375 6.2734-6.4609 11.711-13.688 16.184-21.504 1.1758-2.0117 3.7578-2.6875 5.7695-1.5117 2.0078 1.1758 2.6875 3.7578 1.5117 5.7695zm7.7266-23.465h0.007812c-0.42578 0.082031-0.86328 0.082031-1.2891 0-1.0586-0.33594-1.9414-1.0781-2.4453-2.0703-0.50781-0.98828-0.59375-2.1406-0.24219-3.1953 2.8203-8.6484 4.8633-17.531 6.1055-26.543 0.16406-1.1055 0.75781-2.1016 1.6562-2.7695 0.89844-0.66797 2.0234-0.94922 3.1289-0.78516 2.3047 0.33984 3.8984 2.4805 3.5586 4.7852-1.3477 9.5039-3.5234 18.875-6.4961 28-0.69141 1.5625-2.2695 2.543-3.9766 2.4648zm38.191 80.246h-4.5352 0.007812c-7.5859 0.003906-15.164 0.52734-22.68 1.5703h-0.5625c-2.1055 0.015624-3.8867-1.5508-4.1406-3.6406-0.16016-1.1094 0.12891-2.2344 0.80078-3.125 0.67188-0.89453 1.6719-1.4844 2.7812-1.6367 7.8906-1.0586 15.84-1.6016 23.801-1.6211h4.8164c1.1133 0.027344 2.168 0.5 2.9375 1.3086 0.76562 0.80859 1.1797 1.8867 1.1484 3-0.027344 1.1211-0.50781 2.1797-1.332 2.9414-0.82031 0.75781-1.918 1.1523-3.0352 1.0938zm8.1289-336.45c-7.457 6.3945-15.965 11.453-25.145 14.949-0.48438 0.074219-0.97266 0.074219-1.457 0-1.7617-0.015625-3.3359-1.1016-3.9766-2.7422-0.45312-1.0664-0.44141-2.2734 0.023438-3.332 0.46484-1.0625 1.3516-1.8828 2.4414-2.2695 8.1875-3.2031 15.762-7.7891 22.402-13.551 0.85156-0.72266 1.957-1.0781 3.0703-0.98438 1.1133 0.097656 2.1445 0.63281 2.8633 1.4883 0.91016 0.83984 1.4062 2.0352 1.3633 3.2695-0.042969 1.2383-0.62109 2.3945-1.5859 3.1719zm116.76-32.367-0.003906-0.003906c1.9219-1.0859 4.3516-0.52344 5.6016 1.2891 4.7109 7.668 10.355 14.719 16.801 21 1.6367 1.6406 1.6367 4.2969 0 5.9375-0.78125 0.83984-1.8789 1.3047-3.0234 1.2852-1.0742-0.003907-2.1094-0.40234-2.9141-1.1172-6.9414-6.6953-13.035-14.219-18.145-22.402-0.64062-1.0117-0.8125-2.2539-0.46875-3.4023 0.34375-1.1484 1.168-2.0938 2.2617-2.5898zm-82.043-43.684v-0.55859c0.46484-2.0625 2.375-3.4688 4.4805-3.3047h27.328c2.3203 0 4.1992 1.8828 4.1992 4.1992 0 2.3203-1.8789 4.2031-4.1992 4.2031h-25.199c-0.66406 0.4375-1.4453 0.67188-2.2422 0.67188h-1.0078c-1.1523-0.21484-2.168-0.89453-2.8047-1.8789-0.63672-0.98828-0.83594-2.1914-0.55469-3.332zm-22.398 49.559v0.003906c5.125-7.4922 9.5508-15.441 13.215-23.746 0.38672-1.1016 1.2148-1.9961 2.2891-2.4648 1.0703-0.46484 2.2891-0.46484 3.3594 0.003906 1.0742 0.46875 1.8984 1.3633 2.2852 2.4688 0.38281 1.1055 0.28906 2.3203-0.26172 3.3516-3.8711 8.8203-8.5586 17.258-14 25.203-1.3047 1.7578-3.7422 2.2227-5.6016 1.0625-0.92578-0.63281-1.5586-1.6133-1.7578-2.7188-0.19922-1.1055 0.050781-2.2422 0.69531-3.1602zm36.902 374.36v0.003906c-1.1055 1.9805-3.5859 2.7227-5.5977 1.6797-7.8984-4.2852-16.309-7.543-25.035-9.6875-1.1641-0.18359-2.1992-0.84375-2.8516-1.8242-0.65234-0.98438-0.86328-2.1953-0.57812-3.3398 0.28516-1.1445 1.0352-2.1172 2.0703-2.6797 1.0391-0.5625 2.2617-0.66406 3.375-0.27734 9.4453 2.2656 18.543 5.7891 27.051 10.473 0.99609 0.5 1.75 1.3867 2.0859 2.4492 0.33984 1.0664 0.23047 2.2227-0.29688 3.207zm42.504 3.1367v0.003906c-7.2148 4.3516-13.809 9.6641-19.598 15.789-0.79688 0.82031-1.8867 1.2812-3.0273 1.2891-1.125 0.003906-2.1992-0.46094-2.9648-1.2891l-1.0625-1.0625h-0.003906c-1.6367-1.6406-1.6367-4.2969 0-5.9375 0.875-0.85938 2.082-1.2891 3.3047-1.1758 5.8008-5.6719 12.27-10.617 19.266-14.727 1.9531-1.1133 4.4375-0.46875 5.5977 1.457 1.1523 1.9258 0.58594 4.418-1.2852 5.6562zm16.07-400.9h0.003906c-0.5 0.20312-1.0312 0.29688-1.5703 0.28125-1.707 0.019531-3.2578-1-3.918-2.5781-2.5586-6.3008-4.7266-12.75-6.4961-19.316h-1.793c-2.3203 0-4.1992-1.8828-4.1992-4.2031 0-2.3164 1.8789-4.1992 4.1992-4.1992h5.0391c1.9688 0.007812 3.668 1.3828 4.0898 3.3047 1.8125 7.2266 4.1328 14.32 6.9414 21.223 0.91406 2.0898-0.003906 4.5234-2.0703 5.4883zm35.336 386.4 0.003906 0.003907c-9.0312 0.4375-17.984 1.8477-26.715 4.1992h-1.1211 0.003907c-2.0703-0.054688-3.793-1.6055-4.0586-3.6602-0.26562-2.0547 1.0039-3.9961 2.9922-4.5742 9.3164-2.5039 18.871-4.0039 28.504-4.4766 2.2695-0.011719 4.1641 1.7148 4.3672 3.9727 0.19531 2.2734-1.4805 4.2734-3.75 4.4805zm68.543-37.465 0.003907 0.003906c1.6406-1.6367 4.2969-1.6367 5.9336 0 2.3359 2.2695 4.8672 4.332 7.5625 6.1602 1.9375 1.1445 2.6289 3.6133 1.5664 5.5977l-7.5586 16.016c-0.68359 1.4844-2.1758 2.4258-3.8086 2.4102-0.60547-0.015625-1.1992-0.16797-1.7344-0.44922-1.0352-0.44922-1.8359-1.3047-2.2188-2.3633-0.38281-1.0586-0.30859-2.2305 0.20312-3.2344l6.0469-12.879v-0.003907c-1.9609-1.5117-3.832-3.1367-5.6016-4.8711-0.97266-0.77344-1.5547-1.9375-1.5859-3.1797-0.035156-1.2422 0.48438-2.4375 1.418-3.2578zm-56-291.93 0.003907 0.003907c1.0273-2.0586 3.4922-2.9453 5.5977-2.0156 8.0312 3.6875 16.664 5.8906 25.48 6.4961 2.3203 0.09375 4.125 2.0508 4.0352 4.3672-0.09375 2.3203-2.0508 4.125-4.3711 4.0352h-0.28125 0.003906c-9.8281-0.69531-19.445-3.1641-28.395-7.2812-1.0234-0.47656-1.8203-1.3398-2.207-2.3984-0.39062-1.0625-0.33984-2.2344 0.13672-3.2578zm20.777 179.82 0.003906 0.003906c2.3047 0.089844 4.1172 2.0039 4.0859 4.3125v5.6016 2.8555c0.078125 9.1328 0.82422 18.246 2.2422 27.27 0.36719 2.2891-1.1875 4.4453-3.4727 4.8164h-0.67188c-2.0625 0-3.8164-1.4922-4.1445-3.5273-1.4844-9.4297-2.2695-18.957-2.3516-28.504v-2.9688-5.9375 0.003907c0.12109-2.2773 2.0312-4.043 4.3125-3.9766zm-1.6797-24.305v0.003906c1.4727-9.4766 3.625-18.832 6.4414-28 0.30859-1.0664 1.0391-1.9609 2.0195-2.4766 0.98438-0.51953 2.1328-0.61328 3.1875-0.26562 1.0703 0.30859 1.9688 1.0352 2.4922 2.0156 0.52734 0.98047 0.64062 2.1289 0.30859 3.1914-2.6641 8.7539-4.7227 17.676-6.1602 26.711-0.30469 2.0469-2.0742 3.5508-4.1445 3.5312h-0.61719 0.003907c-2.2695-0.375-3.832-2.4844-3.5312-4.7617zm9.3516 88.258 0.003907 0.003907c1.0781-0.44922 2.2969-0.42578 3.3594 0.0625 1.0664 0.49219 1.875 1.4023 2.2383 2.5117 2.9766 8.5508 6.8594 16.758 11.594 24.473 1.0625 1.9453 0.45312 4.3828-1.4023 5.6016-0.66016 0.39062-1.4141 0.60156-2.1836 0.61328-1.4648 0.011718-2.8281-0.75391-3.582-2.0156-5.0273-8.2227-9.1758-16.949-12.379-26.039-0.70312-2.0977 0.32031-4.3867 2.3555-5.2617zm18.48 88.984v0.003906c-0.5 1.8125-2.1484 3.0703-4.0312 3.0781h-1.1211 0.003906c-8.8008-2.4062-17.77-4.168-26.824-5.2617-2.3047-0.28125-3.9492-2.375-3.668-4.6758 0.27734-2.3047 2.3711-3.9492 4.6758-3.668 9.457 1.1836 18.812 3.0547 28 5.5977 2.125 0.57812 3.4297 2.7188 2.9648 4.8711zm10.191-252 0.003906 0.003906c-5.168 7.5273-9.7383 15.445-13.664 23.688-0.69531 1.4727-2.1797 2.4102-3.8086 2.4062-0.625-0.019532-1.2344-0.17188-1.793-0.44531-2.0859-1.0078-2.9609-3.5117-1.9609-5.6016 4.1133-8.6094 8.8867-16.883 14.281-24.75 1.2695-1.8086 3.7344-2.3008 5.6016-1.1211 1.0039 0.58984 1.7188 1.5664 1.9727 2.7031 0.25391 1.1367 0.027343 2.3281-0.62891 3.2891zm-2.6328-73.586 0.003906 0.003906c-0.25-1.0898-0.054688-2.2383 0.54688-3.1836 0.59766-0.94531 1.5508-1.6133 2.6445-1.8555 5.3984-1.1992 10.711-2.75 15.902-4.6484 1.0547-0.44141 2.2422-0.44141 3.2969 0 1.0508 0.44531 1.8828 1.293 2.3047 2.3516l4.1445 10.078v0.003906c0.87891 2.1484-0.14844 4.6055-2.2969 5.4883-2.1484 0.87891-4.6055-0.14844-5.4883-2.2969l-2.9102-6.2148c-4.4805 1.457-8.8477 2.6875-13.16 3.6406v-0.003907c-2.2578 0.48828-4.4844-0.9375-4.9844-3.1914zm38.359 35.617 0.003906 0.003906c-6.7539 4.9727-13 10.602-18.648 16.801-0.79297 0.85547-1.9102 1.3438-3.0781 1.3438-1.0703-0.003906-2.0977-0.42578-2.8594-1.1758-1.6367-1.6406-1.6367-4.2969 0-5.9375 5.3984-5.7695 11.242-11.105 17.473-15.961-0.13672-2.0469 1.2266-3.8945 3.2266-4.3672 2-0.46875 4.043 0.57031 4.8398 2.4648l0.78516 1.9023h-0.003906c0.75391 1.8945 0.019531 4.0586-1.7344 5.0977z" fill="#0288d1"/>
  <!-- <use x="70" y="644" xlink:href="#v" fill="#0288d1"/>
  <use x="90.550781" y="644" xlink:href="#b" fill="#0288d1"/>
  <use x="104.359375" y="644" xlink:href="#a" fill="#0288d1"/>
  <use x="123.347656" y="644" xlink:href="#f" fill="#0288d1"/>
  <use x="142.242188" y="644" xlink:href="#c" fill="#0288d1"/>
  <use x="155.628906" y="644" xlink:href="#a" fill="#0288d1"/>
  <use x="174.617188" y="644" xlink:href="#k" fill="#0288d1"/>
  <use x="204.410156" y="644" xlink:href="#e" fill="#0288d1"/>
  <use x="224.453125" y="644" xlink:href="#j" fill="#0288d1"/>
  <use x="252.453125" y="644" xlink:href="#i" fill="#0288d1"/>
  <use x="270.292969" y="644" xlink:href="#f" fill="#0288d1"/>
  <use x="289.1875" y="644" xlink:href="#b" fill="#0288d1"/>
  <use x="302.996094" y="644" xlink:href="#h" fill="#0288d1"/>
  <use x="329.410156" y="644" xlink:href="#u" fill="#0288d1"/>
  <use x="357.273438" y="644" xlink:href="#a" fill="#0288d1"/>
  <use x="376.265625" y="644" xlink:href="#t" fill="#0288d1"/>
  <use x="385.859375" y="644" xlink:href="#a" fill="#0288d1"/>
  <use x="404.851562" y="644" xlink:href="#b" fill="#0288d1"/>
  <use x="418.660156" y="644" xlink:href="#c" fill="#0288d1"/>
  <use x="432.046875" y="644" xlink:href="#d" fill="#0288d1"/>
  <use x="451.28125" y="644" xlink:href="#e" fill="#0288d1"/>
  <use x="471.324219" y="644" xlink:href="#a" fill="#0288d1"/>
  <use x="490.3125" y="644" xlink:href="#b" fill="#0288d1"/>
  <use x="504.125" y="644" xlink:href="#a" fill="#0288d1"/>
  <use x="523.113281" y="644" xlink:href="#g" fill="#0288d1"/>
  <use x="543.046875" y="644" xlink:href="#h" fill="#0288d1"/>
  <use x="70" y="672" xlink:href="#s" fill="#0288d1"/>
  <use x="82.183594" y="672" xlink:href="#b" fill="#0288d1"/>
  <use x="95.992188" y="672" xlink:href="#d" fill="#0288d1"/>
  <use x="115.226562" y="672" xlink:href="#r" fill="#0288d1"/>
  <use x="154.152344" y="672" xlink:href="#c" fill="#0288d1"/>
  <use x="167.535156" y="672" xlink:href="#q" fill="#0288d1"/>
  <use x="187.46875" y="672" xlink:href="#a" fill="#0288d1"/>
  <use x="216.207031" y="672" xlink:href="#p" fill="#0288d1"/>
  <use x="239.640625" y="672" xlink:href="#d" fill="#0288d1"/>
  <use x="258.878906" y="672" xlink:href="#o" fill="#0288d1"/>
  <use x="278.8125" y="672" xlink:href="#g" fill="#0288d1"/>
  <use x="308.492188" y="672" xlink:href="#n" fill="#0288d1"/>
  <use x="329.015625" y="672" xlink:href="#b" fill="#0288d1"/>
  <use x="342.820312" y="672" xlink:href="#d" fill="#0288d1"/>
  <use x="362.058594" y="672" xlink:href="#m" fill="#0288d1"/>
  <use x="371.65625" y="672" xlink:href="#a" fill="#0288d1"/>
  <use x="390.648438" y="672" xlink:href="#l" fill="#0288d1"/>
  <use x="407.242188" y="672" xlink:href="#c" fill="#0288d1"/> -->
 </g>
</svg>