<svg xmlns="http://www.w3.org/2000/svg" version="1.0" width="512.000000pt" height="512.000000pt" viewBox="0 0 512.000000 512.000000" preserveAspectRatio="xMidYMid meet">

<g transform="translate(0.000000,512.000000) scale(0.100000,-0.100000)" fill="#0288d1" stroke="none">
<path d="M1586 4949 c-62 -15 -153 -68 -197 -116 -22 -24 -55 -74 -72 -111 l-32 -67 -3 -247 -4 -248 -335 0 c-234 0 -348 -4 -377 -12 -55 -16 -138 -99 -154 -154 -9 -31 -12 -331 -12 -1253 l0 -1211 -120 -480 c-114 -455 -120 -485 -120 -581 0 -56 5 -120 12 -143 16 -55 99 -138 154 -154 60 -18 4408 -18 4468 0 55 16 138 99 154 154 7 23 12 84 12 136 0 88 -9 133 -120 583 l-120 487 0 1210 c0 921 -3 1221 -12 1252 -16 55 -99 138 -154 154 -26 7 -108 12 -218 12 l-176 0 0 80 0 80 295 0 296 0 26 26 c25 25 25 26 21 167 -3 134 -5 146 -35 209 -44 93 -100 151 -191 196 l-76 37 -1435 2 c-845 1 -1452 -3 -1475 -8z m2455 -221 l-36 -72 -5 -1440 c-5 -1384 -6 -1443 -24 -1479 -24 -49 -95 -110 -144 -125 -91 -28 -167 -8 -237 63 -69 68 -75 94 -75 324 0 190 0 192 -25 216 l-24 25 -1016 0 -1015 0 0 1176 c0 895 3 1187 12 1218 15 51 99 137 148 153 25 8 396 11 1256 12 l1220 1 -35 -72z m433 60 c55 -16 138 -99 154 -154 7 -23 12 -67 12 -98 l0 -56 -240 0 -240 0 0 56 c0 87 18 133 75 189 70 71 145 90 239 63z m-3194 -868 l0 -80 -255 0 -256 0 -24 -25 -25 -24 0 -991 0 -991 25 -24 c22 -23 31 -25 125 -25 80 0 100 -3 100 -14 0 -8 15 -44 34 -80 l35 -66 -240 0 -239 0 0 1175 0 1176 25 24 24 25 336 0 335 0 0 -80z m3255 55 l25 -24 0 -1176 0 -1175 -239 0 -240 0 35 66 c19 36 34 72 34 80 0 11 20 14 100 14 94 0 103 2 125 25 l25 24 0 991 0 991 -25 24 c-22 23 -32 25 -120 25 l-95 0 0 80 0 80 175 0 c173 0 176 0 200 -25z m-3255 -1015 l0 -720 -135 0 c-131 0 -137 -1 -160 -25 -24 -23 -25 -29 -25 -160 l0 -135 -40 0 -40 0 0 880 0 880 200 0 200 0 0 -720z m2960 -160 l0 -880 -40 0 -40 0 0 880 0 880 40 0 40 0 0 -880z m-879 -888 l4 -168 36 -72 35 -72 -1054 0 c-799 0 -1065 3 -1096 12 -55 16 -138 99 -154 154 -7 24 -12 100 -12 178 l0 136 1119 0 1119 0 3 -168z m1317 -872 l100 -400 -798 0 -798 0 -33 138 c-24 96 -41 144 -56 160 l-22 22 -511 0 -511 0 -22 -22 c-15 -16 -32 -64 -56 -160 l-33 -138 -798 0 -798 0 100 400 100 400 2018 0 2018 0 100 -400z m-1680 -320 l20 -80 -458 0 -458 0 20 80 20 80 418 0 418 0 20 -80z m1802 -295 c0 -46 -4 -60 -25 -80 l-24 -25 -2191 0 -2191 0 -24 25 c-21 20 -25 34 -25 80 l0 55 2240 0 2240 0 0 -55z" fill="#0288d1"/>
<path d="M2665 4615 c-21 -20 -25 -34 -25 -83 l0 -59 -42 -12 c-76 -22 -143 -74 -172 -132 -14 -29 -26 -69 -26 -89 0 -53 44 -134 93 -170 52 -38 152 -70 221 -70 90 -1 170 -42 164 -84 -4 -28 -61 -64 -114 -72 -102 -15 -192 23 -205 86 -14 68 -87 93 -134 45 -33 -32 -32 -76 1 -144 29 -58 96 -110 172 -132 l42 -12 0 -59 c0 -49 4 -63 25 -83 15 -16 36 -25 55 -25 19 0 40 9 55 25 21 20 25 34 25 83 l0 59 43 12 c75 22 142 74 171 132 14 29 26 69 26 89 0 53 -44 134 -93 170 -52 38 -152 70 -221 70 -90 1 -170 42 -164 84 4 28 61 64 114 72 102 15 192 -23 205 -86 14 -68 87 -93 134 -45 33 32 32 76 -1 144 -29 58 -96 110 -171 132 l-43 12 0 59 c0 49 -4 63 -25 83 -15 16 -36 25 -55 25 -19 0 -40 -9 -55 -25z" fill="#0288d1"/>
<path d="M1785 3175 c-16 -15 -25 -36 -25 -55 0 -19 9 -40 25 -55 23 -24 31 -25 135 -25 104 0 112 1 135 25 16 15 25 36 25 55 0 19 -9 40 -25 55 -23 24 -31 25 -135 25 -104 0 -112 -1 -135 -25z" fill="#0288d1"/>
<path d="M2265 3175 c-16 -15 -25 -36 -25 -55 0 -19 9 -40 25 -55 l24 -25 671 0 671 0 24 25 c33 32 33 78 0 110 l-24 25 -671 0 -671 0 -24 -25z" fill="#0288d1"/>
<path d="M1785 2855 c-16 -15 -25 -36 -25 -55 0 -19 9 -40 25 -55 23 -24 31 -25 135 -25 104 0 112 1 135 25 16 15 25 36 25 55 0 19 -9 40 -25 55 -23 24 -31 25 -135 25 -104 0 -112 -1 -135 -25z" fill="#0288d1"/>
<path d="M2265 2855 c-16 -15 -25 -36 -25 -55 0 -19 9 -40 25 -55 l24 -25 671 0 671 0 24 25 c33 32 33 78 0 110 l-24 25 -671 0 -671 0 -24 -25z" fill="#0288d1"/>
<path d="M1785 2535 c-16 -15 -25 -36 -25 -55 0 -19 9 -40 25 -55 23 -24 31 -25 135 -25 104 0 112 1 135 25 16 15 25 36 25 55 0 19 -9 40 -25 55 -23 24 -31 25 -135 25 -104 0 -112 -1 -135 -25z" fill="#0288d1"/>
<path d="M2265 2535 c-16 -15 -25 -36 -25 -55 0 -19 9 -40 25 -55 l24 -25 671 0 671 0 24 25 c33 32 33 78 0 110 l-24 25 -671 0 -671 0 -24 -25z" fill="#0288d1"/>
<path d="M720 1200 l0 -80 80 0 80 0 0 80 0 80 -80 0 -80 0 0 -80z" fill="#0288d1"/>
<path d="M1040 1200 l0 -80 80 0 80 0 0 80 0 80 -80 0 -80 0 0 -80z" fill="#0288d1"/>
<path d="M1360 1200 l0 -80 80 0 80 0 0 80 0 80 -80 0 -80 0 0 -80z" fill="#0288d1"/>
<path d="M1680 1200 l0 -80 80 0 80 0 0 80 0 80 -80 0 -80 0 0 -80z" fill="#0288d1"/>
<path d="M2000 1200 l0 -80 80 0 80 0 0 80 0 80 -80 0 -80 0 0 -80z" fill="#0288d1"/>
<path d="M2320 1200 l0 -80 80 0 80 0 0 80 0 80 -80 0 -80 0 0 -80z" fill="#0288d1"/>
<path d="M2640 1200 l0 -80 80 0 80 0 0 80 0 80 -80 0 -80 0 0 -80z" fill="#0288d1"/>
<path d="M2960 1200 l0 -80 80 0 80 0 0 80 0 80 -80 0 -80 0 0 -80z" fill="#0288d1"/>
<path d="M3280 1200 l0 -80 80 0 80 0 0 80 0 80 -80 0 -80 0 0 -80z" fill="#0288d1"/>
<path d="M3600 1200 l0 -80 80 0 80 0 0 80 0 80 -80 0 -80 0 0 -80z" fill="#0288d1"/>
<path d="M3920 1200 l0 -80 80 0 80 0 0 80 0 80 -80 0 -80 0 0 -80z" fill="#0288d1"/>
<path d="M4240 1200 l0 -80 80 0 80 0 0 80 0 80 -80 0 -80 0 0 -80z" fill="#0288d1"/>
<path d="M720 880 l0 -80 80 0 80 0 0 80 0 80 -80 0 -80 0 0 -80z" fill="#0288d1"/>
<path d="M1040 880 l0 -80 80 0 80 0 0 80 0 80 -80 0 -80 0 0 -80z" fill="#0288d1"/>
<path d="M1360 880 l0 -80 240 0 240 0 0 80 0 80 -240 0 -240 0 0 -80z" fill="#0288d1"/>
<path d="M3280 880 l0 -80 240 0 240 0 0 80 0 80 -240 0 -240 0 0 -80z" fill="#0288d1"/>
<path d="M3920 880 l0 -80 80 0 80 0 0 80 0 80 -80 0 -80 0 0 -80z" fill="#0288d1"/>
<path d="M4240 880 l0 -80 80 0 80 0 0 80 0 80 -80 0 -80 0 0 -80z" fill="#0288d1"/>
</g>
</svg>