<svg xmlns="http://www.w3.org/2000/svg" xmlns:xlink="http://www.w3.org/1999/xlink" width="700pt" height="700pt" version="1.1" viewBox="0 0 700 700">
 <defs fill="#0288d1">
  <symbol id="v" overflow="visible" fill="#0288d1">
   <path d="m15.375-0.92188c-0.79297 0.41797-1.6211 0.73047-2.4844 0.9375-0.85547 0.20703-1.75 0.3125-2.6875 0.3125-2.7812 0-4.9922-0.77344-6.625-2.3281-1.625-1.5625-2.4375-3.6758-2.4375-6.3438 0-2.6758 0.8125-4.7891 2.4375-6.3438 1.6328-1.5625 3.8438-2.3438 6.625-2.3438 0.9375 0 1.832 0.10547 2.6875 0.3125 0.86328 0.21094 1.6914 0.51562 2.4844 0.92188v3.4688c-0.80469-0.53906-1.5938-0.9375-2.375-1.1875-0.77344-0.25781-1.5859-0.39062-2.4375-0.39062-1.543 0-2.7578 0.49609-3.6406 1.4844-0.875 0.98047-1.3125 2.3398-1.3125 4.0781 0 1.7188 0.4375 3.0742 1.3125 4.0625 0.88281 0.99219 2.0977 1.4844 3.6406 1.4844 0.85156 0 1.6641-0.125 2.4375-0.375 0.78125-0.25781 1.5703-0.66016 2.375-1.2031z" fill="#0288d1"/>
  </symbol>
  <symbol id="d" overflow="visible" fill="#0288d1">
   <path d="m11.25-9.1406c-0.35547-0.15625-0.70312-0.26953-1.0469-0.34375-0.34375-0.082031-0.69531-0.125-1.0469-0.125-1.0312 0-1.8281 0.33594-2.3906 1-0.55469 0.65625-0.82812 1.6016-0.82812 2.8281v5.7812h-4.0156v-12.547h4.0156v2.0625c0.51953-0.82031 1.1133-1.4219 1.7812-1.7969 0.66406-0.38281 1.4688-0.57812 2.4062-0.57812 0.13281 0 0.28125 0.007813 0.4375 0.015625 0.15625 0.011719 0.37891 0.039062 0.67188 0.078125z" fill="#0288d1"/>
  </symbol>
  <symbol id="b" overflow="visible" fill="#0288d1">
   <path d="m14.453-6.3125v1.1406h-9.375c0.09375 0.94922 0.42969 1.6562 1.0156 2.125 0.58203 0.46875 1.3984 0.70312 2.4531 0.70312 0.84375 0 1.707-0.125 2.5938-0.375 0.88281-0.25 1.7891-0.62891 2.7188-1.1406v3.0938c-0.94922 0.36719-1.8984 0.63672-2.8438 0.8125-0.94922 0.1875-1.8984 0.28125-2.8438 0.28125-2.2734 0-4.0391-0.57812-5.2969-1.7344-1.2617-1.1562-1.8906-2.7734-1.8906-4.8594 0-2.0391 0.61719-3.6484 1.8594-4.8281 1.2383-1.1758 2.9414-1.7656 5.1094-1.7656 1.9688 0 3.5391 0.59375 4.7188 1.7812 1.1875 1.1875 1.7812 2.7773 1.7812 4.7656zm-4.125-1.3281c0-0.75781-0.22656-1.375-0.67188-1.8438-0.4375-0.46875-1.0156-0.70312-1.7344-0.70312-0.77344 0-1.4023 0.21875-1.8906 0.65625-0.49219 0.4375-0.79297 1.0703-0.90625 1.8906z" fill="#0288d1"/>
  </symbol>
  <symbol id="l" overflow="visible" fill="#0288d1">
   <path d="m7.5469-5.6562c-0.83594 0-1.4648 0.14844-1.8906 0.4375-0.41797 0.28125-0.625 0.69922-0.625 1.25 0 0.51172 0.16406 0.91406 0.5 1.2031 0.34375 0.28125 0.81641 0.42188 1.4219 0.42188 0.75781 0 1.3945-0.26953 1.9062-0.8125 0.51953-0.53906 0.78125-1.2188 0.78125-2.0312v-0.46875zm6.1406-1.5v7.1562h-4.0469v-1.8594c-0.54297 0.76172-1.1523 1.3203-1.8281 1.6719-0.66797 0.34375-1.4805 0.51562-2.4375 0.51562-1.3047 0-2.3594-0.37891-3.1719-1.1406-0.8125-0.75781-1.2188-1.7422-1.2188-2.9531 0-1.4688 0.50391-2.5469 1.5156-3.2344 1.0195-0.6875 2.6133-1.0312 4.7812-1.0312h2.3594v-0.3125c0-0.63281-0.25-1.0977-0.75-1.3906-0.5-0.30078-1.2812-0.45312-2.3438-0.45312-0.86719 0-1.668 0.089844-2.4062 0.26562-0.74219 0.16797-1.4297 0.42188-2.0625 0.76562v-3.0625c0.86328-0.20703 1.7266-0.36328 2.5938-0.46875 0.86328-0.11328 1.7344-0.17188 2.6094-0.17188 2.2578 0 3.8906 0.44922 4.8906 1.3438 1.0078 0.89844 1.5156 2.3516 1.5156 4.3594z" fill="#0288d1"/>
  </symbol>
  <symbol id="a" overflow="visible" fill="#0288d1">
   <path d="m6.3125-16.109v3.5625h4.1406v2.8594h-4.1406v5.3281c0 0.58594 0.11328 0.98047 0.34375 1.1875 0.22656 0.19922 0.6875 0.29688 1.375 0.29688h2.0625v2.875h-3.4375c-1.5859 0-2.7109-0.32812-3.375-0.98438-0.65625-0.66406-0.98438-1.7891-0.98438-3.375v-5.3281h-2v-2.8594h2v-3.5625z" fill="#0288d1"/>
  </symbol>
  <symbol id="f" overflow="visible" fill="#0288d1">
   <path d="m10.469-10.719v-6.7188h4.0312v17.438h-4.0312v-1.8125c-0.55469 0.74219-1.1641 1.2812-1.8281 1.625-0.66797 0.34375-1.4375 0.51562-2.3125 0.51562-1.543 0-2.8125-0.61328-3.8125-1.8438-0.99219-1.2266-1.4844-2.8125-1.4844-4.75s0.49219-3.5195 1.4844-4.75c1-1.2266 2.2695-1.8438 3.8125-1.8438 0.86328 0 1.6289 0.17969 2.2969 0.53125 0.67578 0.34375 1.2891 0.88281 1.8438 1.6094zm-2.6406 8.125c0.85156 0 1.5039-0.3125 1.9531-0.9375 0.45703-0.625 0.6875-1.5352 0.6875-2.7344 0-1.1953-0.23047-2.1094-0.6875-2.7344-0.44922-0.625-1.1016-0.9375-1.9531-0.9375-0.85547 0-1.5117 0.3125-1.9688 0.9375-0.44922 0.625-0.67188 1.5391-0.67188 2.7344 0 1.1992 0.22266 2.1094 0.67188 2.7344 0.45703 0.625 1.1133 0.9375 1.9688 0.9375z" fill="#0288d1"/>
  </symbol>
  <symbol id="k" overflow="visible" fill="#0288d1">
   <path d="m8.6094-2.5938c0.85156 0 1.5039-0.3125 1.9531-0.9375 0.45703-0.625 0.6875-1.5352 0.6875-2.7344 0-1.1953-0.23047-2.1094-0.6875-2.7344-0.44922-0.625-1.1016-0.9375-1.9531-0.9375-0.86719 0-1.5273 0.32031-1.9844 0.95312-0.46094 0.625-0.6875 1.5312-0.6875 2.7188s0.22656 2.1016 0.6875 2.7344c0.45703 0.625 1.1172 0.9375 1.9844 0.9375zm-2.6719-8.125c0.55078-0.72656 1.1602-1.2656 1.8281-1.6094 0.67578-0.35156 1.4531-0.53125 2.3281-0.53125 1.5508 0 2.8203 0.61719 3.8125 1.8438 1 1.2305 1.5 2.8125 1.5 4.75s-0.5 3.5234-1.5 4.75c-0.99219 1.2305-2.2617 1.8438-3.8125 1.8438-0.875 0-1.6523-0.17188-2.3281-0.51562-0.66797-0.35156-1.2773-0.89453-1.8281-1.625v1.8125h-4.0156v-17.438h4.0156z" fill="#0288d1"/>
  </symbol>
  <symbol id="e" overflow="visible" fill="#0288d1">
   <path d="m0.28125-12.547h4.0156l3.375 8.5156 2.8594-8.5156h4.0156l-5.2812 13.734c-0.53125 1.3945-1.1523 2.3672-1.8594 2.9219-0.69922 0.5625-1.625 0.84375-2.7812 0.84375h-2.3281v-2.6406h1.25c0.6875 0 1.1797-0.10938 1.4844-0.32812 0.3125-0.21094 0.55469-0.59375 0.73438-1.1562l0.10938-0.34375z" fill="#0288d1"/>
  </symbol>
  <symbol id="j" overflow="visible" fill="#0288d1">
   <path d="m12.266-3.0469h-6.75l-1.0625 3.0469h-4.3438l6.2031-16.734h5.1406l6.2031 16.734h-4.3438zm-5.6719-3.1094h4.5781l-2.2812-6.6562z" fill="#0288d1"/>
  </symbol>
  <symbol id="i" overflow="visible" fill="#0288d1">
   <path d="m13.562-10.469c0.50781-0.78125 1.1133-1.375 1.8125-1.7812 0.69531-0.40625 1.4609-0.60938 2.2969-0.60938 1.4453 0 2.5469 0.44922 3.2969 1.3438 0.75 0.88672 1.125 2.1797 1.125 3.875v7.6406h-4.0312v-6.5469c0.007812-0.09375 0.015625-0.19141 0.015625-0.29688 0.007813-0.10156 0.015625-0.25391 0.015625-0.45312 0-0.88281-0.13672-1.5234-0.40625-1.9219-0.26172-0.40625-0.67969-0.60938-1.25-0.60938-0.77344 0-1.3672 0.3125-1.7812 0.9375-0.40625 0.625-0.62109 1.5312-0.64062 2.7188v6.1719h-4.0312v-6.5469c0-1.3828-0.12109-2.2734-0.35938-2.6719-0.24219-0.40625-0.66797-0.60938-1.2812-0.60938-0.77344 0-1.3672 0.32031-1.7812 0.95312-0.41797 0.625-0.625 1.5273-0.625 2.7031v6.1719h-4.0312v-12.547h4.0312v1.8281c0.5-0.70703 1.0664-1.2383 1.7031-1.5938 0.63281-0.36328 1.3359-0.54688 2.1094-0.54688 0.86328 0 1.6289 0.21484 2.2969 0.64062 0.66406 0.41797 1.1719 1 1.5156 1.75z" fill="#0288d1"/>
  </symbol>
  <symbol id="h" overflow="visible" fill="#0288d1">
   <path d="m14.547-7.6406v7.6406h-4.0312v-5.8281c0-1.0938-0.027344-1.8438-0.078125-2.25-0.054688-0.41406-0.13672-0.72266-0.25-0.92188-0.15625-0.25781-0.37109-0.46094-0.64062-0.60938-0.27344-0.14453-0.57812-0.21875-0.92188-0.21875-0.83594 0-1.4922 0.32422-1.9688 0.96875-0.48047 0.64844-0.71875 1.543-0.71875 2.6875v6.1719h-4.0156v-17.438h4.0156v6.7188c0.60156-0.72656 1.2422-1.2656 1.9219-1.6094 0.6875-0.35156 1.4414-0.53125 2.2656-0.53125 1.4453 0 2.5469 0.44922 3.2969 1.3438 0.75 0.88672 1.125 2.1797 1.125 3.875z" fill="#0288d1"/>
  </symbol>
  <symbol id="u" overflow="visible" fill="#0288d1">
   <path d="m11.734-12.156v3.0469c-0.85547-0.36328-1.6836-0.63281-2.4844-0.8125-0.80469-0.17578-1.5586-0.26562-2.2656-0.26562-0.76172 0-1.3281 0.10156-1.7031 0.29688-0.36719 0.1875-0.54688 0.48047-0.54688 0.875 0 0.3125 0.13281 0.55859 0.40625 0.73438 0.28125 0.16797 0.78516 0.29297 1.5156 0.375l0.70312 0.10938c2.0625 0.26172 3.4453 0.69531 4.1562 1.2969 0.70703 0.59375 1.0625 1.5273 1.0625 2.7969 0 1.3438-0.49609 2.3555-1.4844 3.0312-0.99219 0.66797-2.4609 1-4.4062 1-0.83594 0-1.6953-0.070313-2.5781-0.20312-0.88672-0.125-1.7969-0.31641-2.7344-0.57812v-3.0625c0.80078 0.39844 1.6172 0.69531 2.4531 0.89062 0.84375 0.1875 1.7031 0.28125 2.5781 0.28125 0.78125 0 1.3672-0.10938 1.7656-0.32812 0.39453-0.21875 0.59375-0.53516 0.59375-0.95312 0-0.36328-0.13672-0.63281-0.40625-0.8125-0.27344-0.17578-0.82031-0.3125-1.6406-0.40625l-0.70312-0.09375c-1.7812-0.21875-3.0312-0.62891-3.75-1.2344-0.71875-0.60156-1.0781-1.5234-1.0781-2.7656 0-1.3203 0.45312-2.3047 1.3594-2.9531 0.91406-0.64453 2.3164-0.96875 4.2031-0.96875 0.73828 0 1.5156 0.058594 2.3281 0.17188 0.8125 0.11719 1.6953 0.29297 2.6562 0.53125z" fill="#0288d1"/>
  </symbol>
  <symbol id="t" overflow="visible" fill="#0288d1">
   <path d="m13.75-16.203v3.5312c-0.91797-0.40625-1.8125-0.71094-2.6875-0.92188-0.875-0.20703-1.7031-0.3125-2.4844-0.3125-1.0312 0-1.793 0.14062-2.2812 0.42188-0.49219 0.28125-0.73438 0.72656-0.73438 1.3281 0 0.44922 0.16406 0.79688 0.5 1.0469 0.33203 0.25 0.9375 0.46484 1.8125 0.64062l1.8281 0.375c1.8633 0.375 3.1875 0.94531 3.9688 1.7031 0.78125 0.76172 1.1719 1.8438 1.1719 3.25 0 1.8438-0.54688 3.2188-1.6406 4.125-1.0938 0.89844-2.7656 1.3438-5.0156 1.3438-1.0625 0-2.1328-0.10547-3.2031-0.3125-1.0625-0.19531-2.125-0.49219-3.1875-0.89062v-3.6406c1.0625 0.5625 2.0938 0.99219 3.0938 1.2812 1 0.29297 1.9609 0.4375 2.8906 0.4375 0.9375 0 1.6562-0.15625 2.1562-0.46875 0.5-0.32031 0.75-0.77344 0.75-1.3594 0-0.51953-0.17188-0.92188-0.51562-1.2031-0.33594-0.28125-1.0117-0.53516-2.0312-0.76562l-1.6562-0.35938c-1.6797-0.36328-2.9062-0.9375-3.6875-1.7188-0.77344-0.78125-1.1562-1.8359-1.1562-3.1719 0-1.6641 0.53516-2.9453 1.6094-3.8438 1.082-0.89453 2.6328-1.3438 4.6562-1.3438 0.91406 0 1.8594 0.070312 2.8281 0.20312 0.96875 0.13672 1.9727 0.34375 3.0156 0.625z" fill="#0288d1"/>
  </symbol>
  <symbol id="g" overflow="visible" fill="#0288d1">
   <path d="m1.7969-4.8906v-7.6562h4.0312v1.25c0 0.67969-0.007813 1.5312-0.015625 2.5625v2.0469c0 1.0117 0.023438 1.7422 0.078125 2.1875 0.050781 0.44922 0.14062 0.77344 0.26562 0.96875 0.16406 0.26172 0.37891 0.46484 0.64062 0.60938 0.25781 0.13672 0.5625 0.20312 0.90625 0.20312 0.84375 0 1.5039-0.31641 1.9844-0.95312 0.47656-0.64453 0.71875-1.5391 0.71875-2.6875v-6.1875h4v12.547h-4v-1.8125c-0.60547 0.73047-1.2461 1.2734-1.9219 1.625-0.67969 0.34375-1.4219 0.51562-2.2344 0.51562-1.4609 0-2.5703-0.44141-3.3281-1.3281-0.75-0.89453-1.125-2.1914-1.125-3.8906z" fill="#0288d1"/>
  </symbol>
  <symbol id="s" overflow="visible" fill="#0288d1">
   <path d="m1.9219-12.547h4.0156v12.547h-4.0156zm0-4.8906h4.0156v3.2656h-4.0156z" fill="#0288d1"/>
  </symbol>
  <symbol id="c" overflow="visible" fill="#0288d1">
   <path d="m7.9062-9.9844c-0.89844 0-1.5781 0.32422-2.0469 0.96875-0.46094 0.63672-0.6875 1.5547-0.6875 2.75 0 1.2109 0.22656 2.1328 0.6875 2.7656 0.46875 0.63672 1.1484 0.95312 2.0469 0.95312 0.875 0 1.5391-0.31641 2-0.95312 0.46875-0.63281 0.70312-1.5547 0.70312-2.7656 0-1.1953-0.23438-2.1133-0.70312-2.75-0.46094-0.64453-1.125-0.96875-2-0.96875zm0-2.875c2.1562 0 3.8359 0.58594 5.0469 1.75 1.2188 1.168 1.8281 2.7812 1.8281 4.8438s-0.60938 3.6797-1.8281 4.8438c-1.2109 1.168-2.8906 1.75-5.0469 1.75-2.168 0-3.8672-0.58203-5.0938-1.75-1.2188-1.1641-1.8281-2.7812-1.8281-4.8438s0.60938-3.6758 1.8281-4.8438c1.2266-1.1641 2.9258-1.75 5.0938-1.75z" fill="#0288d1"/>
  </symbol>
  <symbol id="r" overflow="visible" fill="#0288d1">
   <path d="m10.188-17.438v2.625h-2.2188c-0.57422 0-0.97656 0.10547-1.2031 0.3125-0.21875 0.21094-0.32812 0.57031-0.32812 1.0781v0.875h3.4375v2.8594h-3.4375v9.6875h-4v-9.6875h-2v-2.8594h2v-0.875c0-1.375 0.37891-2.3828 1.1406-3.0312 0.75781-0.65625 1.9375-0.98438 3.5312-0.98438z" fill="#0288d1"/>
  </symbol>
  <symbol id="q" overflow="visible" fill="#0288d1">
   <path d="m2.1094-16.734h4.8125l6.0938 11.484v-11.484h4.0938v16.734h-4.8281l-6.0781-11.484v11.484h-4.0938z" fill="#0288d1"/>
  </symbol>
  <symbol id="p" overflow="visible" fill="#0288d1">
   <path d="m14.547-7.6406v7.6406h-4.0312v-5.8438c0-1.082-0.027344-1.8281-0.078125-2.2344-0.054688-0.41406-0.13672-0.72266-0.25-0.92188-0.15625-0.25781-0.37109-0.46094-0.64062-0.60938-0.27344-0.14453-0.57812-0.21875-0.92188-0.21875-0.83594 0-1.4922 0.32422-1.9688 0.96875-0.48047 0.64844-0.71875 1.543-0.71875 2.6875v6.1719h-4.0156v-12.547h4.0156v1.8281c0.60156-0.72656 1.2422-1.2656 1.9219-1.6094 0.6875-0.35156 1.4414-0.53125 2.2656-0.53125 1.4453 0 2.5469 0.44922 3.2969 1.3438 0.75 0.88672 1.125 2.1797 1.125 3.875z" fill="#0288d1"/>
  </symbol>
  <symbol id="o" overflow="visible" fill="#0288d1">
   <path d="m2.1094-16.734h7.1562c2.1328 0 3.7695 0.47656 4.9062 1.4219 1.1328 0.94922 1.7031 2.293 1.7031 4.0312 0 1.7617-0.57031 3.1172-1.7031 4.0625-1.1367 0.9375-2.7734 1.4062-4.9062 1.4062h-2.8438v5.8125h-4.3125zm4.3125 3.125v4.6719h2.3906c0.83203 0 1.4766-0.20312 1.9375-0.60938 0.45703-0.40625 0.6875-0.98438 0.6875-1.7344 0-0.73828-0.23047-1.3125-0.6875-1.7188-0.46094-0.40625-1.1055-0.60938-1.9375-0.60938z" fill="#0288d1"/>
  </symbol>
  <symbol id="n" overflow="visible" fill="#0288d1">
   <path d="m1.9219-12.547h4.0156v12.328c0 1.6758-0.40625 2.957-1.2188 3.8438-0.80469 0.88281-1.9688 1.3281-3.5 1.3281h-1.9844v-2.6406h0.70312c0.75781 0 1.2812-0.17188 1.5625-0.51562s0.42188-1.0156 0.42188-2.0156zm0-4.8906h4.0156v3.2656h-4.0156z" fill="#0288d1"/>
  </symbol>
  <symbol id="m" overflow="visible" fill="#0288d1">
   <path d="m12.078-12.156v3.2656c-0.55469-0.375-1.1055-0.64844-1.6562-0.82812-0.54297-0.17578-1.1094-0.26562-1.7031-0.26562-1.125 0-2 0.32812-2.625 0.98438-0.61719 0.64844-0.92188 1.5586-0.92188 2.7344 0 1.1797 0.30469 2.0938 0.92188 2.75 0.625 0.64844 1.5 0.96875 2.625 0.96875 0.625 0 1.2188-0.09375 1.7812-0.28125 0.57031-0.1875 1.0977-0.46094 1.5781-0.82812v3.2812c-0.63672 0.24219-1.2773 0.41406-1.9219 0.53125-0.64844 0.11328-1.293 0.17188-1.9375 0.17188-2.2734 0-4.0469-0.57812-5.3281-1.7344-1.2734-1.1641-1.9062-2.7852-1.9062-4.8594 0-2.0703 0.63281-3.6875 1.9062-4.8438 1.2812-1.1641 3.0547-1.75 5.3281-1.75 0.65625 0 1.3008 0.0625 1.9375 0.1875 0.64453 0.11719 1.2852 0.28906 1.9219 0.51562z" fill="#0288d1"/>
  </symbol>
 </defs>
 <g>
  <path d="m307.67 426.89h-209.11l-24.199 61.133c-12.68 45.695 4.457 55.902 24.715 63.062 15.625 5.5273 71.129 8.918 104.04 8.918 32.906 0 88.41-3.3906 104.05-8.9141 20.262-7.1602 37.391-17.371 24.715-63.059zm-122.92 9.1797h36.723c2.5352 0 4.5898 2.0508 4.5898 4.5898s-2.0547 4.5898-4.5898 4.5898h-36.723c-2.5352 0-4.5898-2.0508-4.5898-4.5898s2.0586-4.5898 4.5898-4.5898zm41.312 96.395c0 2.5352-2.0547 4.5898-4.5898 4.5898h-36.723c-2.5352 0-4.5898-2.0547-4.5898-4.5898v-18.359c0-2.5352 2.0547-4.5898 4.5898-4.5898h36.723c2.5352 0 4.5898 2.0547 4.5898 4.5898zm4.5898-50.492h-55.082c-2.5352 0-4.5898-2.0508-4.5898-4.5898 0-2.5391 2.0547-4.5898 4.5898-4.5898h55.082c2.5352 0 4.5898 2.0508 4.5898 4.5898 0 2.5352-2.0508 4.5898-4.5898 4.5898z" fill="#0288d1"/>
  <path d="m287.35 9.4688c0.57031 0.19141 16.75 5.9883 16.75 27.246v22.957h27.539c2.5352 0 4.5898 2.0508 4.5898 4.5898 0 2.5391-2.0547 4.5898-4.5898 4.5898h-27.539v13.77h91.805v-68.852c0-1.9141 1.1875-3.625 2.9805-4.3008 3.957-1.4844 6.1367-4.1133 6.2031-4.9062 0.007812-2.125-0.48047-2.6211-0.69141-2.832-0.53125-0.51953-2.3945-1.7305-8.5-1.7305h-105.57c-6.1016 0-7.9648 1.2109-8.4883 1.7305-0.21094 0.21094-0.70312 0.70703-0.69141 2.8398 0.0625 0.78516 2.25 3.418 6.207 4.8984z" fill="#0288d1"/>
  <path d="m152.62 128.52h100.98c2.5273 0 4.5898-2.0547 4.5898-4.5898s-2.0625-4.5898-4.5898-4.5898h-100.98c-2.5273 0-4.5898 2.0547-4.5898 4.5898s2.0586 4.5898 4.5898 4.5898z" fill="#0288d1"/>
  <path d="m244.75 267.92c-0.21094-0.53516-0.32031-1.1094-0.32031-1.6875v-128.53h-82.621v128.52c0 0.57813-0.10938 1.1523-0.32031 1.6875l-59.301 149.79h201.85zm-14.098 140.61h-55.082c-2.5352 0-4.5898-2.0508-4.5898-4.5898 0-2.5391 2.0547-4.5898 4.5898-4.5898h55.082c2.5352 0 4.5898 2.0508 4.5898 4.5898 0 2.5391-2.0508 4.5898-4.5898 4.5898zm-50.492-41.309c0-2.5391 2.0547-4.5898 4.5898-4.5898h36.723c2.5352 0 4.5898 2.0508 4.5898 4.5898 0 2.5391-2.0547 4.5898-4.5898 4.5898h-36.723c-2.5312 0-4.5898-2.0547-4.5898-4.5898zm50.492-32.133h-55.082c-2.5352 0-4.5898-2.0508-4.5898-4.5898 0-2.5391 2.0547-4.5898 4.5898-4.5898h55.082c2.5352 0 4.5898 2.0508 4.5898 4.5898 0 2.5391-2.0508 4.5898-4.5898 4.5898z" fill="#0288d1"/>
  <path d="m547.37 362.62h36.723c2.5352 0 4.5898 2.0508 4.5898 4.5898 0 2.5391-2.0547 4.5898-4.5898 4.5898h-36.723v27.539h22.949c2.5352 0 4.5898 2.0508 4.5898 4.5898 0 2.5391-2.0547 4.5898-4.5898 4.5898h-22.949v27.539h36.723c2.5352 0 4.5898 2.0508 4.5898 4.5898 0 2.5391-2.0547 4.5898-4.5898 4.5898h-36.723v27.539h22.949c2.5352 0 4.5898 2.0508 4.5898 4.5898 0 2.5391-2.0547 4.5898-4.5898 4.5898h-22.949v27.539h36.723c2.5352 0 4.5898 2.0508 4.5898 4.5898 0 2.5391-2.0547 4.5898-4.5898 4.5898h-41.312c-2.5352 0-4.5898-2.0508-4.5898-4.5898v-160.64h-160.66v173.8c3.5664 12.496 14.211 18.582 29.07 23.832 15.633 5.5312 71.137 8.9219 104.04 8.9219 33.41 0 66.004-3.5859 81.094-8.9141 14.859-5.2539 25.504-11.344 29.07-23.832v-173.81h-73.441zm-55.082 146.89c0 2.5352-2.0547 4.5898-4.5898 4.5898h-45.902c-2.5352 0-4.5898-2.0547-4.5898-4.5898v-27.539c0-2.5352 2.0547-4.5898 4.5898-4.5898h45.902c2.5352 0 4.5898 2.0547 4.5898 4.5898z" fill="#0288d1"/>
  <path d="m357.69 243.03c-5.957-2.2344-12.25-7.375-12.277-13.504-0.015625-4.0039 1.0859-7.0625 3.3711-9.3555 3.0078-3.0234 7.7695-4.4336 14.98-4.4336h32.125l0.003906-123.93h-91.805v13.77h18.359c2.5352 0 4.5898 2.0508 4.5898 4.5898 0 2.5391-2.0547 4.5898-4.5898 4.5898h-18.359v36.723h27.539c2.5352 0 4.5898 2.0508 4.5898 4.5898 0 2.5391-2.0547 4.5898-4.5898 4.5898h-27.539v36.723h18.359c2.5352 0 4.5898 2.0508 4.5898 4.5898s-2.0547 4.5898-4.5898 4.5898h-18.359v36.723h27.539c2.5352 0 4.5898 2.0508 4.5898 4.5898 0 2.5391-2.0547 4.5898-4.5898 4.5898h-27.539v36.723h18.359c2.5352 0 4.5898 2.0508 4.5898 4.5898 0 2.5391-2.0547 4.5898-4.5898 4.5898h-18.359v36.723h27.539c2.5352 0 4.5898 2.0508 4.5898 4.5898 0 2.5391-2.0547 4.5898-4.5898 4.5898h-27.539v36.723h18.359c2.5352 0 4.5898 2.0508 4.5898 4.5898s-2.0547 4.5898-4.5898 4.5898h-18.359v2.75l34.953 88.301c9.6484 1.1953 19.477 0.64844 29.309-1.5977l0.007813-217.98c0.003906-14.781-10.562-18.574-10.668-18.609z" fill="#0288d1"/>
  <path d="m629.3 226.65c-0.51953-0.51953-2.3867-1.7305-8.4883-1.7305h-257.05c-6.1016 0-7.9648 1.2109-8.4883 1.7305-0.21094 0.21094-0.70313 0.70703-0.69141 2.8398 0.058594 0.78516 2.2461 3.4141 6.2031 4.8984 0.57031 0.19141 16.75 5.9883 16.75 27.25v82.621h160.66v-50.488c0-2.5391 2.0547-4.5898 4.5898-4.5898h41.312c2.5352 0 4.5898 2.0508 4.5898 4.5898 0 2.5391-2.0547 4.5898-4.5898 4.5898h-36.723v27.539h22.949c2.5352 0 4.5898 2.0508 4.5898 4.5898 0 2.5391-2.0547 4.5898-4.5898 4.5898h-22.949v9.1797h73.441v-105.57c0-1.9141 1.1875-3.625 2.9805-4.3008 3.9531-1.4766 6.1367-4.1094 6.2031-4.9062 0.007812-2.125-0.48438-2.6211-0.69531-2.832z" fill="#0288d1"/>
  <!-- <use x="70.007812" y="628.851562" xlink:href="#v" fill="#0288d1"/>
  <use x="86.851562" y="628.851562" xlink:href="#d" fill="#0288d1"/>
  <use x="98.167969" y="628.851562" xlink:href="#b" fill="#0288d1"/>
  <use x="113.734375" y="628.851562" xlink:href="#l" fill="#0288d1"/>
  <use x="129.222656" y="628.851562" xlink:href="#a" fill="#0288d1"/>
  <use x="140.191406" y="628.851562" xlink:href="#b" fill="#0288d1"/>
  <use x="155.757812" y="628.851562" xlink:href="#f" fill="#0288d1"/>
  <use x="180.175781" y="628.851562" xlink:href="#k" fill="#0288d1"/>
  <use x="196.605469" y="628.851562" xlink:href="#e" fill="#0288d1"/>
  <use x="219.558594" y="628.851562" xlink:href="#j" fill="#0288d1"/>
  <use x="237.320312" y="628.851562" xlink:href="#i" fill="#0288d1"/>
  <use x="261.234375" y="628.851562" xlink:href="#b" fill="#0288d1"/>
  <use x="276.800781" y="628.851562" xlink:href="#a" fill="#0288d1"/>
  <use x="287.769531" y="628.851562" xlink:href="#h" fill="#0288d1"/>
  <use x="304.109375" y="628.851562" xlink:href="#e" fill="#0288d1"/>
  <use x="319.070312" y="628.851562" xlink:href="#u" fill="#0288d1"/>
  <use x="332.730469" y="628.851562" xlink:href="#a" fill="#0288d1"/>
  <use x="351.691406" y="628.851562" xlink:href="#t" fill="#0288d1"/>
  <use x="368.222656" y="628.851562" xlink:href="#a" fill="#0288d1"/>
  <use x="379.191406" y="628.851562" xlink:href="#g" fill="#0288d1"/>
  <use x="395.53125" y="628.851562" xlink:href="#f" fill="#0288d1"/>
  <use x="411.960938" y="628.851562" xlink:href="#s" fill="#0288d1"/>
  <use x="419.828125" y="628.851562" xlink:href="#c" fill="#0288d1"/>
  <use x="70.007812" y="651.804688" xlink:href="#r" fill="#0288d1"/>
  <use x="79.992188" y="651.804688" xlink:href="#d" fill="#0288d1"/>
  <use x="91.308594" y="651.804688" xlink:href="#c" fill="#0288d1"/>
  <use x="107.078125" y="651.804688" xlink:href="#i" fill="#0288d1"/>
  <use x="138.984375" y="651.804688" xlink:href="#a" fill="#0288d1"/>
  <use x="149.953125" y="651.804688" xlink:href="#h" fill="#0288d1"/>
  <use x="166.292969" y="651.804688" xlink:href="#b" fill="#0288d1"/>
  <use x="189.847656" y="651.804688" xlink:href="#q" fill="#0288d1"/>
  <use x="209.054688" y="651.804688" xlink:href="#c" fill="#0288d1"/>
  <use x="224.824219" y="651.804688" xlink:href="#g" fill="#0288d1"/>
  <use x="241.164062" y="651.804688" xlink:href="#p" fill="#0288d1"/>
  <use x="265.492188" y="651.804688" xlink:href="#o" fill="#0288d1"/>
  <use x="282.3125" y="651.804688" xlink:href="#d" fill="#0288d1"/>
  <use x="293.632812" y="651.804688" xlink:href="#c" fill="#0288d1"/>
  <use x="309.398437" y="651.804688" xlink:href="#n" fill="#0288d1"/>
  <use x="317.265625" y="651.804688" xlink:href="#b" fill="#0288d1"/>
  <use x="332.832031" y="651.804688" xlink:href="#m" fill="#0288d1"/>
  <use x="346.4375" y="651.804688" xlink:href="#a" fill="#0288d1"/> -->
 </g>
</svg>