<svg xmlns="http://www.w3.org/2000/svg" version="1.0" width="512.000000pt" height="512.000000pt" viewBox="0 0 512.000000 512.000000" preserveAspectRatio="xMidYMid meet">

<g transform="translate(0.000000,512.000000) scale(0.100000,-0.100000)" fill="#0288d1" stroke="none">
<path d="M2060 5114 c-19 -2 -91 -9 -160 -15 -407 -36 -832 -153 -1110 -307 -247 -136 -423 -313 -498 -498 l-27 -69 -3 -790 -3 -790 26 -81 c108 -350 576 -646 1228 -778 71 -14 137 -26 148 -26 11 0 18 -4 15 -9 -7 -10 -321 -235 -589 -421 -98 -68 -188 -137 -200 -154 -31 -44 -35 -124 -8 -173 16 -28 179 -164 603 -503 319 -256 596 -473 617 -482 47 -23 98 -23 141 0 100 51 641 484 960 768 190 169 585 558 765 754 541 588 766 932 849 1300 56 244 49 642 -15 940 -87 401 -312 775 -587 973 -275 198 -591 287 -1222 343 -163 14 -846 28 -930 18z m515 -174 c826 -61 1473 -360 1586 -733 132 -433 -480 -823 -1481 -943 -193 -23 -567 -23 -778 0 -469 51 -879 180 -1154 363 -116 77 -227 194 -274 287 -38 77 -39 84 -39 181 0 97 1 104 39 179 215 436 1161 735 2101 666z m1572 -352 c280 -221 469 -614 524 -1087 17 -154 6 -500 -19 -611 -20 -86 -67 -222 -93 -273 l-15 -27 -64 90 c-35 50 -72 96 -81 101 -32 17 -79 10 -104 -16 -43 -42 -34 -70 65 -209 50 -70 90 -132 90 -138 0 -23 -251 -368 -269 -368 -4 0 -43 42 -86 93 -155 180 -174 197 -215 197 -25 0 -43 -7 -57 -23 -47 -52 -38 -81 52 -184 36 -40 95 -106 131 -147 l65 -75 -92 -103 c-51 -57 -125 -138 -164 -181 l-72 -78 -181 155 c-192 164 -208 176 -242 176 -29 0 -80 -53 -80 -82 1 -40 21 -62 203 -218 l179 -153 -169 -169 c-92 -92 -172 -168 -176 -168 -5 0 -100 79 -213 175 -112 96 -216 178 -231 181 -56 14 -116 -49 -97 -103 6 -18 80 -89 204 -196 107 -92 196 -171 198 -176 3 -9 -105 -108 -265 -244 -103 -87 -99 -87 -118 3 -12 56 -65 147 -108 186 -22 20 -65 48 -96 63 -49 22 -73 27 -186 31 -137 5 -169 14 -211 62 -30 33 -42 59 -55 120 -41 191 -203 310 -402 295 -45 -4 -77 -3 -75 2 2 5 80 65 173 132 974 701 1799 1384 2163 1792 163 181 290 346 327 422 141 291 51 573 -265 829 l-35 28 50 -27 c28 -16 78 -50 112 -77z m-3475 -1115 c568 -374 1616 -507 2465 -314 136 32 327 87 412 121 29 11 54 20 57 20 24 0 -599 -539 -921 -796 -231 -185 -706 -544 -719 -544 -4 0 -6 103 -6 229 0 216 -1 230 -21 255 -15 19 -30 26 -54 26 -90 0 -95 -15 -95 -314 l0 -245 -32 5 c-106 18 -155 27 -265 51 l-123 26 0 241 c0 209 -2 246 -18 276 -20 41 -59 58 -99 44 -55 -19 -63 -55 -63 -291 l0 -212 -57 20 c-32 11 -109 44 -170 74 l-113 54 0 284 c0 281 0 284 -22 304 -32 29 -53 34 -88 21 -55 -19 -60 -44 -60 -278 0 -115 -4 -210 -8 -210 -14 0 -147 142 -174 185 -14 22 -35 66 -46 98 -21 56 -22 70 -22 563 l0 506 73 -68 c39 -37 116 -96 169 -131z m1003 -2158 c134 -1 160 -9 213 -69 28 -33 52 -89 52 -126 0 -32 51 -122 94 -168 25 -27 71 -61 103 -77 53 -26 71 -29 193 -34 118 -5 140 -9 172 -29 48 -30 72 -70 101 -168 13 -43 27 -86 31 -95 7 -16 -82 -91 -338 -283 -113 -84 -131 -95 -145 -83 -9 8 -265 213 -569 456 l-553 442 148 103 c81 57 174 121 206 144 l58 40 57 -26 c51 -24 69 -27 177 -27z" fill="#0288d1"/>
<path d="M2354 4816 c-39 -17 -111 -81 -119 -105 -5 -15 -22 -19 -107 -25 -295 -20 -588 -113 -753 -238 -147 -112 -206 -256 -166 -405 90 -333 813 -541 1476 -423 360 64 608 198 697 378 19 38 23 63 23 132 0 80 -3 92 -39 165 -46 92 -150 203 -256 273 -81 54 -282 153 -375 186 -205 73 -315 90 -381 62z m191 -182 c50 -14 125 -39 168 -56 l77 -29 -1 -47 c0 -26 -8 -193 -17 -372 l-17 -325 -85 -17 c-77 -16 -339 -39 -349 -31 -3 2 9 197 27 434 33 461 35 469 86 469 12 0 62 -12 111 -26z m-348 -166 c-3 -29 -16 -201 -28 -381 l-23 -328 -55 6 c-411 45 -721 206 -721 374 0 56 18 88 83 148 134 122 428 217 716 231 l34 2 -6 -52z m848 -63 c33 -24 82 -66 108 -94 114 -122 115 -230 2 -329 -47 -41 -211 -129 -221 -119 -6 6 11 399 22 529 4 47 10 66 18 61 6 -3 38 -25 71 -48z" fill="#0288d1"/>
<path d="M2518 4254 c-33 -17 -52 -79 -45 -141 8 -77 51 -114 112 -99 76 19 88 203 15 241 -36 18 -47 18 -82 -1z" fill="#0288d1"/>
<path d="M1562 997 c-35 -38 -30 -86 16 -129 76 -73 428 -347 454 -353 30 -8 82 15 92 40 8 22 8 59 -1 80 -3 10 -110 100 -236 201 -204 163 -234 184 -267 184 -25 0 -43 -7 -58 -23z" fill="#0288d1"/>
</g>
</svg>